M48
; DRILL file KiCad 10.0.6 date 2026-09-26T13:08:52
; FORMAT={-:-/ absolute / metric / decimal}
; #@! TF.CreationDate,2026-09-26T13:08:52-04:00
; #@! TF.GenerationSoftware,Kicad,Pcbnew,10.0.6
; #@! TF.FileFunction,Plated,1,2,Blind
FMAT,2
METRIC
; #@! TA.AperFunction,Plated,Buried,ViaDrill
T1C0.200
; #@! TA.AperFunction,Plated,Buried,ViaDrill
T2C0.203
%
G90
G05
T1
X28.739Y31.032
X28.748Y32.556
X28.765Y74.57
X28.767Y46.54
X28.767Y45.016
X28.772Y16.944
X28.772Y60.577
X28.781Y59.053
X28.783Y73.046
X28.79Y18.468
X30.181Y7.121
X30.204Y9.053
X30.204Y21.216
X30.216Y23.149
X30.291Y37.142
X30.291Y35.21
X30.352Y51.188
X30.363Y49.256
X30.399Y65.191
X30.422Y63.258
X30.497Y27.719
X30.511Y13.622
X30.545Y41.714
X30.578Y55.762
X30.6Y69.765
X33.793Y26.684
X33.801Y12.567
X33.847Y40.698
X33.886Y54.765
X33.913Y68.788
X34.727Y9.762
X34.735Y23.884
X34.806Y37.904
X34.827Y29.726
X34.852Y15.603
X34.862Y51.977
X34.863Y43.746
X34.884Y57.819
X34.893Y71.848
X34.905Y66.005
X34.999Y6.374
X35.064Y20.243
X35.117Y34.519
X35.193Y48.594
X35.255Y62.624
X35.312Y25.913
X35.316Y11.788
X35.371Y39.936
X35.415Y54.012
X35.446Y68.044
X35.587Y29.467
X35.611Y15.34
X35.625Y43.492
X35.648Y57.57
X35.658Y71.603
X37.096Y26.918
X37.106Y12.783
X37.149Y40.952
X37.187Y55.039
X37.212Y69.08
X37.343Y29.223
X37.366Y15.087
X37.382Y43.259
X37.406Y57.347
X37.418Y71.39
X37.6Y26.153
X37.605Y12.015
X37.657Y40.19
X37.699Y54.28
X37.729Y68.324
T2
X62.469Y26.006
X62.472Y11.724
X62.526Y40.19
X62.568Y54.428
X62.596Y68.615
X63.102Y26.189
X63.106Y11.904
X63.158Y40.378
X63.199Y54.618
X63.226Y68.81
X64.197Y26.166
X64.202Y11.875
X64.254Y40.362
X64.295Y54.609
X64.322Y68.807
X64.905Y27.04
X64.914Y12.744
X64.956Y41.239
X64.992Y55.491
X65.014Y69.692
X84.914Y30.346
X84.918Y31.048
X84.942Y15.935
X84.945Y45.366
X84.945Y44.664
X84.95Y16.637
X84.953Y74.053
X84.956Y59.736
X84.96Y59.034
X84.961Y73.351
X84.983Y8.031
X84.991Y8.722
X85.0Y22.442
X85.004Y23.133
X85.078Y37.451
X85.078Y36.761
X85.136Y51.823
X85.14Y51.132
X85.179Y66.14
X85.187Y65.449
X116.542Y7.662
X116.55Y8.352
X116.561Y22.255
X116.565Y22.945
X116.608Y30.171
X116.612Y30.873
X116.635Y15.578
X116.64Y45.379
X116.64Y44.677
X116.64Y37.451
X116.64Y36.761
X116.643Y16.28
X116.646Y74.436
X116.65Y59.937
X116.654Y73.734
X116.655Y59.235
X116.697Y52.01
X116.701Y51.319
X116.739Y66.509
X116.747Y65.818
X166.353Y7.764
X166.371Y22.644
X166.372Y7.079
X166.393Y21.959
X166.446Y37.445
X166.473Y36.761
X166.503Y52.299
X166.534Y51.615
X166.542Y67.086
X166.547Y29.883
X166.551Y30.574
X166.571Y15.002
X166.576Y66.401
X166.579Y15.693
X166.579Y45.376
X166.579Y44.685
X166.582Y75.018
X166.589Y60.231
X166.59Y74.327
X166.593Y59.54
X179.262Y6.948
X179.27Y7.619
X179.284Y21.903
X179.288Y22.573
X179.331Y29.794
X179.335Y30.491
X179.355Y14.839
X179.363Y15.536
X179.364Y45.369
X179.364Y44.672
X179.364Y37.451
X179.364Y36.781
X179.366Y75.16
X179.373Y60.299
X179.374Y74.463
X179.378Y59.603
X179.42Y52.382
X179.424Y51.711
X179.458Y67.243
X179.466Y66.572
X210.559Y29.609
X210.563Y30.311
X210.581Y14.474
X210.589Y15.176
X210.592Y75.53
X210.593Y45.374
X210.593Y44.672
X210.601Y74.828
X210.601Y60.49
X210.606Y59.788
X210.622Y6.569
X210.63Y7.26
X210.646Y21.704
X210.65Y22.395
X210.726Y37.459
X210.726Y36.769
X210.782Y52.576
X210.786Y51.885
X210.818Y67.617
X210.826Y66.927
X242.182Y6.2
X242.19Y6.891
X242.207Y21.517
X242.211Y22.208
X242.254Y29.433
X242.258Y30.135
X242.274Y14.116
X242.282Y14.818
X242.285Y75.914
X242.288Y45.387
X242.288Y44.685
X242.288Y37.459
X242.288Y36.769
X242.293Y75.212
X242.296Y60.691
X242.3Y59.989
X242.343Y52.763
X242.347Y52.073
X242.378Y67.987
X242.386Y67.296
X291.993Y6.303
X292.011Y5.618
X292.016Y21.906
X292.039Y21.221
X292.094Y37.453
X292.121Y36.769
X292.148Y53.053
X292.179Y52.368
X292.181Y68.563
X292.192Y29.145
X292.197Y29.836
X292.21Y13.541
X292.215Y67.878
X292.219Y14.232
X292.221Y76.495
X292.227Y45.384
X292.227Y44.693
X292.229Y75.804
X292.235Y60.984
X292.239Y60.294
X304.902Y5.487
X304.909Y6.158
X304.93Y21.165
X304.934Y21.836
X304.977Y29.056
X304.981Y29.753
X304.994Y13.378
X305.002Y14.075
X305.005Y76.637
X305.012Y45.377
X305.012Y44.68
X305.012Y37.459
X305.012Y36.789
X305.013Y75.94
X305.019Y61.053
X305.023Y60.356
X305.066Y53.136
X305.07Y52.465
X305.098Y68.72
X305.105Y68.05
X336.269Y28.863
X336.273Y29.565
X336.285Y13.004
X336.293Y13.706
X336.296Y77.001
X336.304Y76.299
X336.305Y45.375
X336.305Y44.673
X336.312Y61.236
X336.316Y60.534
X336.326Y5.1
X336.334Y5.791
X336.356Y20.959
X336.36Y21.65
X336.438Y37.46
X336.438Y36.769
X336.492Y53.323
X336.496Y52.632
X336.522Y69.088
X336.53Y68.397
X367.885Y4.731
X367.893Y5.422
X367.917Y20.771
X367.921Y21.462
X367.964Y28.688
X367.968Y29.39
X367.978Y12.647
X367.986Y13.349
X367.989Y77.384
X367.997Y76.682
X368.0Y45.388
X368.0Y44.685
X368.0Y37.46
X368.0Y36.769
X368.006Y61.437
X368.01Y60.735
X368.053Y53.51
X368.057Y52.819
X368.081Y69.457
X368.089Y68.766
X417.696Y4.833
X417.715Y4.148
X417.726Y21.161
X417.749Y20.476
X417.806Y37.454
X417.833Y36.769
X417.858Y53.799
X417.884Y70.033
X417.889Y53.115
X417.903Y28.4
X417.907Y29.091
X417.914Y12.071
X417.919Y69.349
X417.922Y12.762
X417.925Y77.965
X417.933Y77.274
X417.939Y45.385
X417.939Y44.694
X417.945Y61.731
X417.949Y61.04
X430.605Y4.018
X430.613Y4.688
X430.64Y20.42
X430.644Y21.09
X430.687Y28.311
X430.691Y29.008
X430.698Y11.908
X430.706Y12.605
X430.709Y78.107
X430.717Y77.411
X430.724Y45.377
X430.724Y44.681
X430.724Y37.46
X430.724Y36.789
X430.729Y61.799
X430.733Y61.103
X430.776Y53.882
X430.78Y53.211
X430.801Y70.19
X430.809Y69.52
X461.89Y28.116
X461.894Y28.818
X461.899Y11.534
X461.907Y12.236
X461.91Y78.468
X461.919Y77.766
X461.928Y45.373
X461.928Y44.671
X461.932Y61.98
X461.936Y61.278
X461.94Y3.629
X461.948Y4.32
X461.976Y20.212
X461.98Y20.903
X462.061Y37.458
X462.061Y36.768
X462.112Y54.066
X462.116Y53.376
X462.136Y70.555
X462.144Y69.865
X493.5Y3.26
X493.508Y3.951
X493.538Y20.024
X493.542Y20.715
X493.584Y27.941
X493.589Y28.643
X493.592Y11.176
X493.6Y11.878
X493.603Y78.852
X493.611Y78.15
X493.623Y45.386
X493.623Y44.684
X493.623Y37.458
X493.623Y36.768
X493.627Y62.181
X493.631Y61.479
X493.674Y54.254
X493.678Y53.563
X493.696Y70.924
X493.704Y70.234
X543.311Y3.363
X543.329Y2.678
X543.347Y20.414
X543.37Y19.729
X543.429Y37.452
X543.456Y36.768
X543.479Y54.543
X543.499Y71.501
X543.51Y53.859
X543.523Y27.653
X543.527Y28.344
X543.528Y10.601
X543.533Y70.816
X543.536Y11.291
X543.539Y79.433
X543.547Y78.742
X543.562Y45.383
X543.562Y44.692
X543.565Y62.475
X543.569Y61.784
X556.22Y2.547
X556.227Y3.218
X556.261Y19.673
X556.265Y20.343
X556.307Y27.564
X556.312Y28.261
X556.312Y10.438
X556.32Y11.135
X556.323Y79.575
X556.331Y78.878
X556.347Y45.376
X556.347Y44.679
X556.347Y37.458
X556.347Y36.788
X556.35Y62.543
X556.354Y61.847
X556.397Y54.626
X556.401Y53.955
X556.416Y71.658
X556.423Y70.987
X565.242Y5.757
X565.265Y22.934
X565.265Y7.687
X565.276Y24.864
X565.331Y42.033
X565.331Y40.103
X565.346Y76.337
X565.354Y59.254
X565.365Y57.324
X565.369Y74.407
X565.524Y7.052
X565.539Y24.231
X565.543Y6.381
X565.561Y23.56
X565.598Y41.401
X565.62Y75.708
X565.624Y58.623
X565.624Y40.73
X565.654Y75.038
X565.655Y57.953
M30
