M48
; DRILL file KiCad 10.0.6 date 2026-09-26T13:08:52
; FORMAT={-:-/ absolute / metric / decimal}
; #@! TF.CreationDate,2026-09-26T13:08:52-04:00
; #@! TF.GenerationSoftware,Kicad,Pcbnew,10.0.6
; #@! TF.FileFunction,Plated,3,4,Blind
FMAT,2
METRIC
; #@! TA.AperFunction,Plated,Buried,ViaDrill
T1C0.200
; #@! TA.AperFunction,Plated,Buried,ViaDrill
T2C0.203
%
G90
G05
T1
X29.615Y28.554
X29.633Y14.462
X29.657Y42.544
X29.686Y56.586
X29.703Y70.584
T2
X27.717Y30.022
X27.719Y25.62
X27.721Y11.539
X27.744Y15.94
X27.751Y44.0
X27.771Y58.031
X27.779Y72.018
X27.779Y39.599
X27.826Y53.63
X27.859Y67.618
X29.585Y31.858
X29.608Y45.848
X29.615Y73.887
X29.617Y59.889
X29.623Y17.766
X33.288Y27.195
X33.299Y13.081
X33.339Y41.206
X33.348Y28.666
X33.368Y14.553
X33.375Y55.27
X33.391Y42.679
X33.399Y69.29
X33.419Y56.743
X33.434Y70.763
X34.025Y28.428
X34.043Y14.311
X34.069Y42.445
X34.098Y56.513
X34.115Y70.537
X34.308Y27.951
X34.324Y13.831
X34.355Y41.968
X34.387Y56.038
X34.406Y70.064
X34.55Y25.917
X34.554Y11.796
X34.609Y39.936
X34.653Y54.008
X34.684Y68.035
X35.187Y26.042
X35.192Y11.917
X35.245Y40.065
X35.289Y54.14
X35.319Y68.171
X36.014Y6.362
X36.08Y20.493
X36.133Y34.519
X36.209Y48.6
X36.271Y62.636
X37.365Y29.473
X37.39Y15.336
X37.403Y43.509
X37.422Y25.977
X37.426Y57.597
X37.426Y11.84
X37.436Y71.64
X37.48Y40.014
X37.524Y54.102
X37.554Y68.146
X38.127Y29.432
X38.151Y15.291
X38.165Y43.473
X38.188Y57.565
X38.198Y71.613
X38.625Y31.398
X38.65Y45.441
X38.66Y17.254
X38.661Y73.586
X38.662Y59.537
X43.446Y26.88
X43.455Y12.708
X43.499Y40.952
X43.537Y55.077
X43.562Y69.155
X63.023Y25.697
X63.025Y11.413
X63.082Y39.886
X63.126Y54.126
X63.156Y68.317
X63.791Y26.169
X63.795Y11.88
X63.847Y40.362
X63.888Y54.607
X63.916Y68.802
X64.466Y27.038
X64.476Y12.745
X64.517Y41.235
X64.553Y55.483
X64.575Y69.683
X80.478Y30.368
X80.482Y31.07
X80.506Y15.983
X80.509Y45.362
X80.509Y44.66
X80.514Y16.685
X80.517Y73.996
X80.52Y59.705
X80.52Y8.078
X80.524Y59.003
X80.526Y73.294
X80.528Y8.769
X80.537Y22.464
X80.541Y23.155
X80.615Y37.447
X80.615Y36.756
X80.673Y51.791
X80.677Y51.101
X80.717Y66.083
X80.725Y65.393
X105.768Y7.783
X105.776Y8.474
X105.786Y22.314
X105.79Y23.005
X105.833Y30.23
X105.837Y30.932
X105.86Y15.699
X105.865Y45.375
X105.865Y44.672
X105.865Y37.447
X105.865Y36.756
X105.869Y16.401
X105.872Y74.306
X105.875Y59.869
X105.88Y59.167
X105.88Y73.604
X105.922Y51.941
X105.926Y51.25
X105.964Y66.379
X105.972Y65.688
X145.618Y8.002
X145.632Y7.317
X145.635Y22.762
X145.652Y22.077
X145.71Y37.441
X145.731Y36.756
X145.767Y52.172
X145.784Y30.002
X145.788Y30.692
X145.792Y51.487
X145.807Y66.839
X145.809Y15.24
X145.816Y45.372
X145.816Y44.681
X145.818Y15.931
X145.821Y74.77
X145.826Y60.103
X145.829Y74.079
X145.83Y59.412
X145.836Y66.154
X155.944Y7.217
X155.952Y7.887
X155.965Y22.036
X155.969Y22.707
X156.012Y29.928
X156.016Y30.624
X156.036Y15.107
X156.044Y45.364
X156.044Y44.668
X156.044Y37.447
X156.044Y36.776
X156.044Y15.804
X156.048Y74.882
X156.054Y60.156
X156.056Y74.186
X156.058Y59.46
X156.101Y52.239
X156.105Y51.568
X156.14Y66.965
X156.148Y66.295
X180.994Y29.779
X180.998Y30.481
X181.017Y14.815
X181.026Y15.517
X181.027Y45.37
X181.027Y44.668
X181.029Y75.18
X181.032Y6.911
X181.036Y60.31
X181.037Y74.478
X181.04Y7.602
X181.04Y59.608
X181.054Y21.875
X181.058Y22.566
X181.133Y37.455
X181.133Y36.764
X181.19Y52.396
X181.194Y51.705
X181.228Y67.267
X181.236Y66.576
X206.279Y6.616
X206.287Y7.306
X206.303Y21.725
X206.307Y22.416
X206.35Y29.642
X206.354Y30.344
X206.372Y14.532
X206.38Y15.234
X206.383Y75.489
X206.383Y45.383
X206.383Y44.68
X206.383Y37.455
X206.383Y36.764
X206.391Y74.787
X206.392Y60.473
X206.396Y59.771
X206.439Y52.546
X206.443Y51.855
X206.475Y67.562
X206.484Y66.871
X246.13Y6.835
X246.143Y6.149
X246.151Y22.174
X246.168Y21.489
X246.228Y37.449
X246.249Y36.764
X246.283Y52.776
X246.301Y29.413
X246.305Y30.104
X246.309Y52.091
X246.318Y68.022
X246.321Y14.073
X246.329Y14.764
X246.332Y75.954
X246.334Y45.38
X246.334Y44.689
X246.34Y75.263
X246.343Y60.707
X246.347Y60.017
X246.347Y67.337
X256.455Y6.049
X256.463Y6.72
X256.481Y21.448
X256.485Y22.119
X256.528Y29.339
X256.532Y30.036
X256.548Y13.94
X256.556Y14.637
X256.559Y76.066
X256.562Y45.372
X256.562Y44.676
X256.562Y37.455
X256.562Y36.784
X256.567Y75.369
X256.57Y60.761
X256.574Y60.064
X256.617Y52.844
X256.621Y52.173
X256.651Y68.149
X256.659Y67.478
X281.562Y29.183
X281.566Y29.885
X281.58Y13.64
X281.589Y14.342
X281.592Y76.356
X281.595Y5.735
X281.597Y45.37
X281.597Y44.668
X281.6Y75.654
X281.603Y6.426
X281.604Y60.907
X281.608Y60.205
X281.622Y21.279
X281.626Y21.97
X281.703Y37.455
X281.703Y36.764
X281.758Y52.993
X281.762Y52.302
X281.791Y68.443
X281.799Y67.752
X306.842Y5.44
X306.85Y6.131
X306.871Y21.129
X306.875Y21.82
X306.918Y29.045
X306.922Y29.748
X306.935Y13.356
X306.943Y14.058
X306.946Y76.666
X306.953Y45.383
X306.953Y44.681
X306.953Y37.455
X306.953Y36.764
X306.954Y75.964
X306.96Y61.071
X306.964Y60.368
X307.007Y53.143
X307.011Y52.452
X307.038Y68.739
X307.047Y68.048
X346.693Y5.659
X346.706Y4.974
X346.719Y21.577
X346.736Y20.893
X346.798Y37.449
X346.819Y36.764
X346.851Y53.373
X346.869Y28.817
X346.873Y29.508
X346.877Y52.689
X346.881Y69.198
X346.884Y12.897
X346.892Y13.588
X346.895Y77.13
X346.903Y76.439
X346.904Y45.38
X346.904Y44.689
X346.91Y68.514
X346.911Y61.305
X346.915Y60.614
X357.018Y4.874
X357.026Y5.544
X357.049Y20.852
X357.053Y21.522
X357.096Y28.743
X357.1Y29.44
X357.111Y12.764
X357.119Y13.461
X357.122Y77.242
X357.13Y76.546
X357.132Y45.373
X357.132Y44.676
X357.132Y37.455
X357.132Y36.785
X357.138Y61.358
X357.142Y60.661
X357.185Y53.441
X357.189Y52.77
X357.214Y69.325
X357.222Y68.655
X382.059Y28.585
X382.063Y29.287
X382.072Y12.463
X382.08Y13.165
X382.083Y77.53
X382.086Y4.559
X382.091Y76.828
X382.094Y5.249
X382.095Y45.369
X382.095Y44.667
X382.101Y61.502
X382.105Y60.8
X382.118Y20.681
X382.122Y21.372
X382.202Y37.454
X382.202Y36.763
X382.254Y53.588
X382.258Y52.897
X382.282Y69.617
X382.29Y68.926
X407.334Y4.263
X407.342Y4.954
X407.367Y20.531
X407.371Y21.222
X407.414Y28.448
X407.418Y29.15
X407.426Y12.179
X407.434Y12.881
X407.437Y77.839
X407.445Y77.137
X407.451Y45.382
X407.451Y44.679
X407.451Y37.454
X407.451Y36.763
X407.456Y61.665
X407.461Y60.963
X407.503Y53.738
X407.507Y53.047
X407.53Y69.912
X407.538Y69.221
X447.184Y4.482
X447.197Y3.797
X447.216Y20.98
X447.233Y20.295
X447.296Y37.448
X447.317Y36.763
X447.348Y53.968
X447.365Y28.219
X447.369Y28.91
X447.372Y70.372
X447.373Y53.284
X447.375Y11.72
X447.383Y12.411
X447.386Y78.304
X447.394Y77.613
X447.402Y69.688
X447.403Y45.379
X447.403Y44.688
X447.407Y61.9
X447.411Y61.209
X457.51Y3.697
X457.518Y4.367
X457.546Y20.254
X457.55Y20.924
X457.593Y28.145
X457.597Y28.842
X457.602Y11.588
X457.61Y12.284
X457.613Y78.416
X457.621Y77.719
X457.63Y45.371
X457.63Y44.675
X457.63Y37.454
X457.63Y36.783
X457.635Y61.953
X457.639Y61.256
X457.682Y54.036
X457.686Y53.365
X457.706Y70.499
X457.714Y69.828
X482.734Y27.995
X482.738Y28.697
X482.742Y11.293
X482.75Y11.995
X482.753Y78.714
X482.756Y3.388
X482.761Y78.012
X482.764Y4.079
X482.772Y45.375
X482.772Y44.673
X482.776Y62.106
X482.78Y61.404
X482.793Y20.09
X482.797Y20.781
X482.878Y37.461
X482.878Y36.77
X482.929Y54.192
X482.933Y53.501
X482.952Y70.801
X482.96Y70.11
X508.003Y3.093
X508.012Y3.784
X508.042Y19.941
X508.046Y20.632
X508.089Y27.857
X508.093Y28.559
X508.096Y11.009
X508.104Y11.711
X508.107Y79.023
X508.115Y78.321
X508.128Y45.388
X508.128Y44.686
X508.128Y37.461
X508.128Y36.77
X508.131Y62.27
X508.135Y61.568
X508.178Y54.342
X508.182Y53.651
X508.2Y71.096
X508.208Y70.405
X547.854Y3.312
X547.867Y2.627
X547.891Y20.389
X547.908Y19.704
X547.973Y37.455
X547.994Y36.77
X548.023Y54.573
X548.04Y27.628
X548.042Y71.556
X548.044Y28.319
X548.045Y10.55
X548.048Y53.888
X548.053Y11.241
X548.056Y79.488
X548.064Y78.797
X548.071Y70.872
X548.079Y45.385
X548.079Y44.695
X548.082Y62.504
X548.086Y61.813
X558.18Y2.527
X558.187Y3.197
X558.221Y19.663
X558.225Y20.334
X558.268Y27.554
X558.272Y28.251
X558.272Y10.417
X558.28Y11.114
X558.283Y79.6
X558.291Y78.903
X558.307Y45.378
X558.307Y44.681
X558.307Y37.461
X558.307Y36.79
X558.31Y62.557
X558.314Y61.861
X558.357Y54.64
X558.361Y53.969
X558.375Y71.683
X558.383Y71.013
X565.388Y5.755
X565.41Y22.933
X565.41Y7.686
X565.422Y24.864
X565.477Y42.033
X565.477Y40.103
X565.491Y76.339
X565.499Y59.255
X565.511Y57.325
X565.514Y74.409
X565.616Y7.051
X565.63Y6.38
X565.631Y24.23
X565.648Y23.56
X565.69Y41.401
X565.711Y40.73
X565.712Y75.71
X565.716Y58.624
X565.741Y75.039
X565.741Y57.954
M30
