%TF.GenerationSoftware,KiCad,Pcbnew,10.0.6*%
%TF.CreationDate,2026-09-26T13:08:47-04:00*%
%TF.ProjectId,new_fretboard_rev6,6e65775f-6672-4657-9462-6f6172645f72,rev?*%
%TF.SameCoordinates,Original*%
%TF.FileFunction,Profile,NP*%
%FSLAX46Y46*%
G04 Gerber Fmt 4.6, Leading zero omitted, Abs format (unit mm)*
G04 Created by KiCad (PCBNEW 10.0.6) date 2026-09-26 13:08:47*
%MOMM*%
%LPD*%
G01*
G04 APERTURE LIST*
%TA.AperFunction,Profile*%
%ADD10C,0.050000*%
%TD*%
%TA.AperFunction,Profile*%
%ADD11C,0.084658*%
%TD*%
%ADD12C,0.084658*%
G04 APERTURE END LIST*
D10*
X583610618Y82300129D02*
X583673582Y158646D01*
D11*
X768096Y76033751D02*
X768096Y6190398D01*
D12*
X2107940Y2955687D02*
X2121503Y2942181D01*
X2135121Y2928733D01*
X2148795Y2915342D01*
X2162523Y2902010D01*
X2176307Y2888736D01*
X2190145Y2875520D01*
X2204037Y2862363D01*
X2217984Y2849265D01*
X2231985Y2836225D01*
X2246039Y2823245D01*
X2260147Y2810325D01*
X2274309Y2797463D01*
X2288523Y2784662D01*
X2302791Y2771921D01*
X2317111Y2759239D01*
X2331484Y2746618D01*
X2345909Y2734058D01*
X2360386Y2721558D01*
X2374915Y2709119D01*
X2389495Y2696742D01*
X2404127Y2684426D01*
X2418809Y2672171D01*
X2433543Y2659978D01*
X2448328Y2647846D01*
X2463162Y2635777D01*
X2478047Y2623770D01*
X2492982Y2611826D01*
X2507967Y2599944D01*
X2523001Y2588125D01*
X2538084Y2576370D01*
X2553216Y2564677D01*
X2568397Y2553048D01*
X2583627Y2541482D01*
X2598904Y2529981D01*
X2614230Y2518543D01*
X2629604Y2507169D01*
X2645024Y2495860D01*
X2660493Y2484615D01*
X2676008Y2473435D01*
X2691569Y2462320D01*
X2707178Y2451270D01*
X2722832Y2440286D01*
X2738532Y2429367D01*
X2754278Y2418513D01*
X2770070Y2407726D01*
X2785906Y2397004D01*
X2801787Y2386349D01*
X2817713Y2375760D01*
X2833684Y2365237D01*
X2849698Y2354782D01*
X2865756Y2344393D01*
X2881858Y2334072D01*
X2898002Y2323817D01*
X2914190Y2313631D01*
X2930421Y2303512D01*
X2946693Y2293460D01*
X2963008Y2283477D01*
X2979365Y2273562D01*
X2995763Y2263715D01*
X3012203Y2253937D01*
X3028683Y2244228D01*
X3045205Y2234587D01*
X3061766Y2225015D01*
X3078368Y2215513D01*
X3095009Y2206080D01*
X3111690Y2196717D01*
X3128410Y2187423D01*
X3145170Y2178199D01*
X3161967Y2169045D01*
X3178804Y2159962D01*
X3195678Y2150948D01*
X3212590Y2142006D01*
X3229539Y2133134D01*
X3246526Y2124332D01*
X3263549Y2115602D01*
X3280609Y2106943D01*
X3297705Y2098355D01*
X3314837Y2089839D01*
X3332005Y2081395D01*
X3349208Y2073022D01*
X3366446Y2064721D01*
X3383718Y2056492D01*
X3401025Y2048335D01*
X3418367Y2040251D01*
X3435742Y2032240D01*
X3453150Y2024300D01*
X3470591Y2016434D01*
X3488066Y2008641D01*
X3505573Y2000921D01*
X3523112Y1993274D01*
X3540683Y1985700D01*
X3558286Y1978200D01*
X3575919Y1970774D01*
X3593584Y1963421D01*
X3602428Y1959772D01*
X3611280Y1956142D01*
X3620139Y1952530D01*
X3629005Y1948937D01*
X3637879Y1945363D01*
X3646761Y1941807D01*
X3655650Y1938269D01*
X3664546Y1934750D01*
X3673450Y1931250D01*
X3682361Y1927769D01*
X3691279Y1924306D01*
X3700205Y1920861D01*
X3709137Y1917436D01*
X3718077Y1914029D01*
X3727024Y1910640D01*
X3735978Y1907271D01*
X3744939Y1903920D01*
X3753907Y1900588D01*
X3762882Y1897275D01*
X3771864Y1893980D01*
X3780852Y1890704D01*
X3789848Y1887447D01*
X3798850Y1884209D01*
X3807859Y1880990D01*
X3816874Y1877789D01*
X3825897Y1874608D01*
X3834926Y1871445D01*
X3843961Y1868301D01*
X3853003Y1865176D01*
X3862052Y1862070D01*
X3871106Y1858983D01*
X3880168Y1855915D01*
X3889235Y1852866D01*
X3898310Y1849836D01*
X3907390Y1846825D01*
X3916477Y1843832D01*
X3925569Y1840859D01*
X3934668Y1837905D01*
X3943773Y1834970D01*
X3952885Y1832054D01*
X3962002Y1829157D01*
X3971125Y1826279D01*
X3980254Y1823420D01*
X3989389Y1820580D01*
X3998530Y1817760D01*
X4007677Y1814958D01*
X4016830Y1812176D01*
X4025988Y1809413D01*
X4035152Y1806669D01*
X4044322Y1803944D01*
X4053497Y1801238D01*
X4062679Y1798552D01*
X4071865Y1795885D01*
X4081057Y1793237D01*
X4090255Y1790608D01*
X4099458Y1787998D01*
X4108666Y1785408D01*
X4117880Y1782837D01*
X4127099Y1780286D01*
X4136324Y1777753D01*
X4145553Y1775240D01*
X4154788Y1772746D01*
X4164028Y1770272D01*
X4173273Y1767817D01*
X4182523Y1765381D01*
X4191778Y1762964D01*
X4201038Y1760568D01*
X4210303Y1758190D01*
X4219573Y1755832D01*
X4228848Y1753493D01*
X4238128Y1751173D01*
X4247412Y1748873D01*
X4256701Y1746593D01*
X4265996Y1744332D01*
X4275294Y1742090D01*
X4284597Y1739868D01*
X4293905Y1737665D01*
X4303217Y1735482D01*
X4312534Y1733318D01*
X4321856Y1731174D01*
X4331181Y1729049D01*
X4340511Y1726944D01*
X4349845Y1724858D01*
X4359185Y1722792D01*
X4368527Y1720745D01*
X4377875Y1718718D01*
X4387226Y1716710D01*
X4396582Y1714722D01*
X4405941Y1712754D01*
X4415305Y1710805D01*
X4424672Y1708876D01*
X4434045Y1706966D01*
X4443420Y1705076D01*
X4452800Y1703206D01*
X4462183Y1701355D01*
X4471570Y1699524D01*
X4480961Y1697713D01*
X4490356Y1695921D01*
X4499754Y1694149D01*
X4509157Y1692396D01*
X4518562Y1690664D01*
X4527972Y1688950D01*
X4537384Y1687257D01*
X4546801Y1685583D01*
X4556220Y1683929D01*
X4565644Y1682295D01*
X4575070Y1680680D01*
X4584501Y1679085D01*
X4593933Y1677510D01*
X4603370Y1675955D01*
X4612810Y1674419D01*
X4622253Y1672903D01*
X4631699Y1671407D01*
X4641148Y1669930D01*
X4650600Y1668474D01*
X4660056Y1667037D01*
X4669514Y1665620D01*
X4678976Y1664223D01*
X4688439Y1662845D01*
X4697907Y1661487D01*
X4707376Y1660150D01*
X4716849Y1658831D01*
X4726324Y1657533D01*
X4735803Y1656255D01*
X4745283Y1654996D01*
X4754767Y1653757D01*
X4764252Y1652538D01*
X4773742Y1651339D01*
X4783232Y1650160D01*
X4792726Y1649000D01*
X4802222Y1647861D01*
X4811721Y1646741D01*
X4821221Y1645641D01*
X4830725Y1644561D01*
X4840230Y1643501D01*
X4849738Y1642461D01*
X4859247Y1641441D01*
X4868760Y1640440D01*
X4878274Y1639459D01*
X4887791Y1638499D01*
X4897308Y1637558D01*
X4906830Y1636637D01*
X4916351Y1635736D01*
X4925876Y1634855D01*
X4935402Y1633994D01*
X4944931Y1633153D01*
X4954460Y1632331D01*
X4963993Y1631530D01*
X4973525Y1630749D01*
X4983061Y1629987D01*
X4992598Y1629245D01*
X5002137Y1628524D01*
X5011677Y1627822D01*
X5021219Y1627140D01*
X5030762Y1626479D01*
X5040307Y1625837D01*
X5049853Y1625215D01*
X5059401Y1624613D01*
X5068950Y1624031D01*
X5078501Y1623469D01*
X5088052Y1622927D01*
X5097606Y1622405D01*
X5107160Y1621902D01*
X5116716Y1621420D01*
X5126272Y1620958D01*
X5135831Y1620516D01*
X5145389Y1620094D01*
X5154950Y1619691D01*
X5164510Y1619309D01*
X5174073Y1618947D01*
X5183635Y1618605D01*
X5193200Y1618282D01*
X5202763Y1617980D01*
X5212330Y1617698D01*
X5221896Y1617435D01*
X5231464Y1617193D01*
X5241031Y1616970D01*
X5250600Y1616768D01*
X5260169Y1616586D01*
X5269740Y1616423D01*
X5279309Y1616281D01*
X5288881Y1616159D01*
X5298452Y1616056D01*
X5308025Y1615974D01*
X5317597Y1615912D01*
X5327171Y1615869D01*
X5342651Y1615843D01*
X5342651Y80608336D02*
X5323511Y80608296D01*
X5304373Y80608176D01*
X5285236Y80607976D01*
X5266101Y80607696D01*
X5246969Y80607336D01*
X5227840Y80606897D01*
X5208713Y80606377D01*
X5189590Y80605778D01*
X5170471Y80605098D01*
X5151355Y80604339D01*
X5132243Y80603499D01*
X5113136Y80602580D01*
X5094033Y80601581D01*
X5074935Y80600503D01*
X5055843Y80599344D01*
X5036756Y80598106D01*
X5017675Y80596788D01*
X4998600Y80595390D01*
X4979531Y80593912D01*
X4960470Y80592355D01*
X4941415Y80590718D01*
X4922368Y80589002D01*
X4903328Y80587206D01*
X4884296Y80585330D01*
X4865273Y80583375D01*
X4846258Y80581340D01*
X4827252Y80579225D01*
X4808255Y80577032D01*
X4789267Y80574759D01*
X4770289Y80572406D01*
X4751322Y80569974D01*
X4732365Y80567463D01*
X4713418Y80564873D01*
X4694482Y80562203D01*
X4675558Y80559454D01*
X4656646Y80556626D01*
X4637745Y80553719D01*
X4618856Y80550733D01*
X4599981Y80547668D01*
X4581118Y80544524D01*
X4562268Y80541301D01*
X4543431Y80537999D01*
X4524609Y80534619D01*
X4505801Y80531160D01*
X4487007Y80527622D01*
X4468228Y80524005D01*
X4449464Y80520310D01*
X4430715Y80516537D01*
X4411982Y80512685D01*
X4393266Y80508754D01*
X4374565Y80504746D01*
X4355882Y80500659D01*
X4337215Y80496494D01*
X4318566Y80492251D01*
X4299934Y80487930D01*
X4281320Y80483531D01*
X4262725Y80479054D01*
X4244148Y80474499D01*
X4225590Y80469867D01*
X4207052Y80465157D01*
X4188533Y80460370D01*
X4170034Y80455504D01*
X4151555Y80450562D01*
X4133097Y80445542D01*
X4114660Y80440446D01*
X4096243Y80435272D01*
X4077849Y80430020D01*
X4059476Y80424692D01*
X4041126Y80419288D01*
X4022798Y80413806D01*
X4004493Y80408248D01*
X3986211Y80402613D01*
X3967953Y80396902D01*
X3949718Y80391114D01*
X3931508Y80385250D01*
X3913322Y80379310D01*
X3895161Y80373294D01*
X3877025Y80367202D01*
X3858914Y80361034D01*
X3840829Y80354790D01*
X3822771Y80348471D01*
X3804738Y80342076D01*
X3786733Y80335606D01*
X3768754Y80329061D01*
X3750803Y80322440D01*
X3732880Y80315745D01*
X3714985Y80308974D01*
X3697118Y80302129D01*
X3679279Y80295209D01*
X3661470Y80288214D01*
X3643690Y80281145D01*
X3625940Y80274002D01*
X3608219Y80266784D01*
X3590529Y80259493D01*
X3581696Y80255819D01*
X3572870Y80252127D01*
X3564051Y80248417D01*
X3555241Y80244688D01*
X3546438Y80240941D01*
X3537644Y80237175D01*
X3528857Y80233391D01*
X3520078Y80229589D01*
X3511307Y80225768D01*
X3502544Y80221929D01*
X3493789Y80218072D01*
X3485042Y80214196D01*
X3476304Y80210302D01*
X3467573Y80206390D01*
X3458851Y80202459D01*
X3450136Y80198511D01*
X3441431Y80194544D01*
X3432733Y80190559D01*
X3424044Y80186555D01*
X3415363Y80182534D01*
X3406691Y80178494D01*
X3398027Y80174437D01*
X3389372Y80170361D01*
X3380725Y80166267D01*
X3372087Y80162155D01*
X3363457Y80158025D01*
X3354837Y80153878D01*
X3346224Y80149712D01*
X3337621Y80145528D01*
X3329026Y80141326D01*
X3320441Y80137106D01*
X3311863Y80132868D01*
X3303296Y80128612D01*
X3294736Y80124339D01*
X3286186Y80120047D01*
X3277645Y80115738D01*
X3269113Y80111411D01*
X3260590Y80107066D01*
X3252076Y80102703D01*
X3243572Y80098323D01*
X3235076Y80093924D01*
X3226590Y80089508D01*
X3218113Y80085075D01*
X3209645Y80080623D01*
X3201187Y80076154D01*
X3192738Y80071667D01*
X3184299Y80067163D01*
X3175869Y80062641D01*
X3167449Y80058101D01*
X3159037Y80053544D01*
X3150636Y80048969D01*
X3142244Y80044377D01*
X3133863Y80039767D01*
X3125490Y80035139D01*
X3117128Y80030495D01*
X3108775Y80025832D01*
X3100432Y80021153D01*
X3092098Y80016456D01*
X3083775Y80011741D01*
X3075461Y80007009D01*
X3067158Y80002260D01*
X3058864Y79997493D01*
X3050581Y79992710D01*
X3042308Y79987908D01*
X3034045Y79983090D01*
X3025791Y79978254D01*
X3017548Y79973401D01*
X3009315Y79968531D01*
X3001093Y79963644D01*
X2992880Y79958739D01*
X2984679Y79953818D01*
X2976487Y79948879D01*
X2968306Y79943923D01*
X2960135Y79938950D01*
X2951975Y79933961D01*
X2943824Y79928953D01*
X2935685Y79923930D01*
X2927556Y79918888D01*
X2919438Y79913831D01*
X2911330Y79908756D01*
X2903234Y79903664D01*
X2895147Y79898555D01*
X2887072Y79893430D01*
X2879007Y79888287D01*
X2870954Y79883128D01*
X2862910Y79877952D01*
X2854878Y79872759D01*
X2846857Y79867549D01*
X2838847Y79862323D01*
X2830847Y79857080D01*
X2822859Y79851820D01*
X2814881Y79846543D01*
X2806916Y79841250D01*
X2798960Y79835940D01*
X2791017Y79830614D01*
X2783083Y79825271D01*
X2775162Y79819912D01*
X2767251Y79814535D01*
X2759353Y79809143D01*
X2751465Y79803734D01*
X2743589Y79798308D01*
X2735723Y79792866D01*
X2727870Y79787408D01*
X2720028Y79781933D01*
X2712198Y79776442D01*
X2704378Y79770934D01*
X2696571Y79765410D01*
X2688774Y79759870D01*
X2680991Y79754314D01*
X2673217Y79748740D01*
X2665457Y79743152D01*
X2657707Y79737546D01*
X2649970Y79731925D01*
X2642244Y79726287D01*
X2634530Y79720634D01*
X2626827Y79714963D01*
X2619138Y79709278D01*
X2611459Y79703575D01*
X2603793Y79697858D01*
X2596138Y79692123D01*
X2588496Y79686373D01*
X2580865Y79680607D01*
X2573247Y79674825D01*
X2565640Y79669027D01*
X2558046Y79663213D01*
X2550464Y79657383D01*
X2542895Y79651537D01*
X2535336Y79645675D01*
X2527792Y79639798D01*
X2520258Y79633905D01*
X2512738Y79627996D01*
X2505229Y79622071D01*
X2497733Y79616131D01*
X2490249Y79610175D01*
X2482778Y79604203D01*
X2475319Y79598215D01*
X2467873Y79592213D01*
X2460439Y79586194D01*
X2453018Y79580160D01*
X2445609Y79574110D01*
X2438214Y79568045D01*
X2430830Y79561964D01*
X2423459Y79555868D01*
X2416101Y79549755D01*
X2408756Y79543629D01*
X2401423Y79537486D01*
X2394104Y79531328D01*
X2386796Y79525154D01*
X2379503Y79518966D01*
X2372221Y79512761D01*
X2364953Y79506543D01*
X2357697Y79500307D01*
X2350455Y79494058D01*
X2343225Y79487793D01*
X2336010Y79481513D01*
X2328806Y79475217D01*
X2321616Y79468907D01*
X2314438Y79462581D01*
X2307275Y79456240D01*
X2300123Y79449884D01*
X2292986Y79443514D01*
X2285861Y79437127D01*
X2278750Y79430727D01*
X2271651Y79424310D01*
X2264567Y79417880D01*
X2257495Y79411434D01*
X2250438Y79404974D01*
X2243393Y79398497D01*
X2236362Y79392008D01*
X2229343Y79385502D01*
X2222340Y79378982D01*
X2215348Y79372447D01*
X2208371Y79365898D01*
X2201407Y79359333D01*
X2194457Y79352754D01*
X2187520Y79346160D01*
X2180597Y79339552D01*
X2173687Y79332929D01*
X2166792Y79326292D01*
X2159909Y79319639D01*
X2153042Y79312973D01*
X2146186Y79306291D01*
X2139346Y79299595D01*
X2132518Y79292884D01*
X2125706Y79286160D01*
X2118906Y79279420D01*
X2107940Y79268492D01*
X768096Y6190398D02*
X768136Y6171258D01*
X768256Y6152120D01*
X768456Y6132983D01*
X768736Y6113848D01*
X769096Y6094716D01*
X769535Y6075587D01*
X770055Y6056460D01*
X770654Y6037337D01*
X771334Y6018217D01*
X772093Y5999101D01*
X772933Y5979989D01*
X773852Y5960882D01*
X774851Y5941779D01*
X775929Y5922681D01*
X777088Y5903588D01*
X778326Y5884501D01*
X779644Y5865420D01*
X781042Y5846345D01*
X782520Y5827276D01*
X784077Y5808214D01*
X785714Y5789159D01*
X787430Y5770112D01*
X789227Y5751072D01*
X791102Y5732040D01*
X793058Y5713016D01*
X795092Y5694001D01*
X797207Y5674994D01*
X799400Y5655997D01*
X801674Y5637009D01*
X804026Y5618031D01*
X806458Y5599063D01*
X808969Y5580105D01*
X811560Y5561159D01*
X814229Y5542223D01*
X816978Y5523298D01*
X819806Y5504385D01*
X822713Y5485484D01*
X825699Y5466595D01*
X828764Y5447719D01*
X831909Y5428856D01*
X835131Y5410006D01*
X838433Y5391169D01*
X841814Y5372346D01*
X845273Y5353538D01*
X848811Y5334743D01*
X852427Y5315964D01*
X856122Y5297199D01*
X859896Y5278451D01*
X863748Y5259717D01*
X867678Y5241000D01*
X871687Y5222299D01*
X875774Y5203615D01*
X879939Y5184948D01*
X884182Y5166299D01*
X888503Y5147667D01*
X892902Y5129053D01*
X897379Y5110457D01*
X901933Y5091880D01*
X906566Y5073322D01*
X911276Y5054783D01*
X916063Y5036263D01*
X920928Y5017764D01*
X925871Y4999285D01*
X930890Y4980827D01*
X935987Y4962389D01*
X941161Y4943973D01*
X946412Y4925578D01*
X951740Y4907205D01*
X957145Y4888854D01*
X962627Y4870526D01*
X968185Y4852221D01*
X973820Y4833938D01*
X979531Y4815680D01*
X985319Y4797445D01*
X991183Y4779234D01*
X997123Y4761048D01*
X1003139Y4742887D01*
X1009231Y4724751D01*
X1015399Y4706640D01*
X1021642Y4688555D01*
X1027962Y4670496D01*
X1034356Y4652463D01*
X1040827Y4634458D01*
X1047372Y4616479D01*
X1053992Y4598528D01*
X1060688Y4580604D01*
X1067458Y4562709D01*
X1074304Y4544842D01*
X1081224Y4527003D01*
X1088218Y4509194D01*
X1095287Y4491414D01*
X1102430Y4473664D01*
X1109648Y4455943D01*
X1116939Y4438253D01*
X1120613Y4429419D01*
X1124305Y4420594D01*
X1128015Y4411775D01*
X1131744Y4402965D01*
X1135491Y4394162D01*
X1139257Y4385368D01*
X1143041Y4376581D01*
X1146843Y4367802D01*
X1150664Y4359031D01*
X1154503Y4350268D01*
X1158360Y4341513D01*
X1162236Y4332766D01*
X1166129Y4324028D01*
X1170042Y4315297D01*
X1173972Y4306575D01*
X1177921Y4297861D01*
X1181887Y4289155D01*
X1185872Y4280457D01*
X1189876Y4271768D01*
X1193897Y4263088D01*
X1197936Y4254415D01*
X1201994Y4245752D01*
X1206070Y4237096D01*
X1210163Y4228450D01*
X1214275Y4219812D01*
X1218405Y4211182D01*
X1222553Y4202561D01*
X1226719Y4193949D01*
X1230902Y4185346D01*
X1235104Y4176751D01*
X1239324Y4168166D01*
X1243562Y4159589D01*
X1247817Y4151021D01*
X1252091Y4142462D01*
X1256382Y4133912D01*
X1260691Y4125371D01*
X1265018Y4116839D01*
X1269363Y4108316D01*
X1273726Y4099803D01*
X1278106Y4091298D01*
X1282504Y4082803D01*
X1286920Y4074317D01*
X1291354Y4065840D01*
X1295805Y4057372D01*
X1300274Y4048915D01*
X1304761Y4040466D01*
X1309265Y4032027D01*
X1313787Y4023597D01*
X1318327Y4015177D01*
X1322884Y4006766D01*
X1327458Y3998365D01*
X1332051Y3989973D01*
X1336660Y3981591D01*
X1341288Y3973219D01*
X1345932Y3964857D01*
X1350594Y3956504D01*
X1355274Y3948161D01*
X1359971Y3939828D01*
X1364685Y3931505D01*
X1369417Y3923192D01*
X1374166Y3914889D01*
X1378932Y3906595D01*
X1383716Y3898312D01*
X1388517Y3890039D01*
X1393335Y3881776D01*
X1398171Y3873523D01*
X1403023Y3865281D01*
X1407893Y3857048D01*
X1412780Y3848826D01*
X1417685Y3840613D01*
X1422606Y3832412D01*
X1427545Y3824220D01*
X1432500Y3816040D01*
X1437473Y3807869D01*
X1442462Y3799709D01*
X1447469Y3791559D01*
X1452493Y3783421D01*
X1457534Y3775292D01*
X1462591Y3767174D01*
X1467666Y3759067D01*
X1472758Y3750971D01*
X1477866Y3742884D01*
X1482992Y3734810D01*
X1488134Y3726745D01*
X1493293Y3718692D01*
X1498469Y3710649D01*
X1503661Y3702617D01*
X1508871Y3694596D01*
X1514097Y3686586D01*
X1519340Y3678587D01*
X1524599Y3670599D01*
X1529876Y3662622D01*
X1535168Y3654657D01*
X1540478Y3646702D01*
X1545804Y3638759D01*
X1551147Y3630826D01*
X1556506Y3622905D01*
X1561882Y3614995D01*
X1567274Y3607097D01*
X1572683Y3599209D01*
X1578108Y3591334D01*
X1583550Y3583469D01*
X1589008Y3575616D01*
X1594483Y3567774D01*
X1599973Y3559944D01*
X1605481Y3552125D01*
X1611004Y3544319D01*
X1616544Y3536523D01*
X1622100Y3528739D01*
X1627673Y3520967D01*
X1633261Y3513206D01*
X1638867Y3505457D01*
X1644487Y3497721D01*
X1650125Y3489995D01*
X1655778Y3482282D01*
X1661448Y3474580D01*
X1667133Y3466890D01*
X1672835Y3459212D01*
X1678553Y3451547D01*
X1684287Y3443892D01*
X1690036Y3436251D01*
X1695802Y3428621D01*
X1701584Y3421003D01*
X1707382Y3413397D01*
X1713195Y3405804D01*
X1719025Y3398222D01*
X1724870Y3390653D01*
X1730731Y3383096D01*
X1736608Y3375551D01*
X1742501Y3368018D01*
X1748409Y3360499D01*
X1754334Y3352990D01*
X1760273Y3345496D01*
X1766229Y3338012D01*
X1772200Y3330542D01*
X1778188Y3323083D01*
X1784190Y3315638D01*
X1790208Y3308205D01*
X1796242Y3300785D01*
X1802292Y3293376D01*
X1808356Y3285981D01*
X1814437Y3278598D01*
X1820532Y3271228D01*
X1826644Y3263871D01*
X1832770Y3256527D01*
X1838913Y3249194D01*
X1845070Y3241876D01*
X1851243Y3234569D01*
X1857431Y3227276D01*
X1863635Y3219995D01*
X1869853Y3212728D01*
X1876088Y3205473D01*
X1882337Y3198232D01*
X1888602Y3191002D01*
X1894881Y3183787D01*
X1901176Y3176584D01*
X1907486Y3169395D01*
X1913811Y3162218D01*
X1920151Y3155055D01*
X1926507Y3147905D01*
X1932877Y3140768D01*
X1939263Y3133644D01*
X1945662Y3126534D01*
X1952078Y3119436D01*
X1958508Y3112353D01*
X1964954Y3105282D01*
X1971413Y3098225D01*
X1977889Y3091181D01*
X1984378Y3084151D01*
X1990883Y3077133D01*
X1997402Y3070130D01*
X2003937Y3063140D01*
X2010485Y3056164D01*
X2017049Y3049200D01*
X2023627Y3042251D01*
X2030221Y3035315D01*
X2036828Y3028393D01*
X2043451Y3021484D01*
X2050088Y3014590D01*
X2056740Y3007708D01*
X2063405Y3000841D01*
X2070086Y2993987D01*
X2076781Y2987148D01*
X2083491Y2980321D01*
X2090215Y2973509D01*
X2096954Y2966710D01*
X2107940Y2955687D01*
D11*
X5342651Y1615782D02*
X583673582Y158646D01*
X583610618Y82300129D02*
X5342651Y80608336D01*
D12*
X2107940Y79268492D02*
X2094435Y79254930D01*
X2080988Y79241314D01*
X2067598Y79227641D01*
X2054267Y79213914D01*
X2040993Y79200132D01*
X2027778Y79186295D01*
X2014622Y79172404D01*
X2001524Y79158458D01*
X1988486Y79144459D01*
X1975507Y79130406D01*
X1962586Y79116299D01*
X1949726Y79102139D01*
X1936925Y79087925D01*
X1924184Y79073659D01*
X1911504Y79059340D01*
X1898884Y79044968D01*
X1886324Y79030544D01*
X1873825Y79016068D01*
X1861387Y79001541D01*
X1849009Y78986961D01*
X1836694Y78972331D01*
X1824439Y78957649D01*
X1812247Y78942916D01*
X1800116Y78928133D01*
X1788048Y78913299D01*
X1776041Y78898415D01*
X1764097Y78883481D01*
X1752216Y78868497D01*
X1740398Y78853464D01*
X1728642Y78838381D01*
X1716950Y78823250D01*
X1705321Y78808070D01*
X1693756Y78792841D01*
X1682255Y78777564D01*
X1670817Y78762239D01*
X1659444Y78746867D01*
X1648135Y78731447D01*
X1636891Y78715979D01*
X1625711Y78700465D01*
X1614596Y78684904D01*
X1603547Y78669296D01*
X1592562Y78653642D01*
X1581643Y78637943D01*
X1570790Y78622197D01*
X1560003Y78606406D01*
X1549281Y78590571D01*
X1538626Y78574690D01*
X1528037Y78558764D01*
X1517515Y78542795D01*
X1507060Y78526781D01*
X1496671Y78510723D01*
X1486350Y78494622D01*
X1476096Y78478478D01*
X1465909Y78462290D01*
X1455790Y78446060D01*
X1445739Y78429788D01*
X1435756Y78413473D01*
X1425841Y78397117D01*
X1415994Y78380719D01*
X1406216Y78364280D01*
X1396507Y78347800D01*
X1386866Y78331279D01*
X1377295Y78314717D01*
X1367792Y78298116D01*
X1358359Y78281475D01*
X1348996Y78264794D01*
X1339702Y78248074D01*
X1330478Y78231315D01*
X1321324Y78214517D01*
X1312241Y78197681D01*
X1303227Y78180807D01*
X1294285Y78163896D01*
X1285413Y78146946D01*
X1276611Y78129960D01*
X1267881Y78112937D01*
X1259222Y78095877D01*
X1250634Y78078781D01*
X1242118Y78061649D01*
X1233673Y78044481D01*
X1225300Y78027278D01*
X1216999Y78010040D01*
X1208770Y77992767D01*
X1200613Y77975460D01*
X1192529Y77958119D01*
X1184517Y77940744D01*
X1176578Y77923336D01*
X1168712Y77905894D01*
X1160918Y77888420D01*
X1153198Y77870913D01*
X1145551Y77853373D01*
X1137977Y77835802D01*
X1130477Y77818200D01*
X1123050Y77800566D01*
X1115697Y77782901D01*
X1112048Y77774057D01*
X1108418Y77765205D01*
X1104806Y77756346D01*
X1101213Y77747479D01*
X1097639Y77738605D01*
X1094082Y77729723D01*
X1090545Y77720834D01*
X1087026Y77711938D01*
X1083526Y77703034D01*
X1080044Y77694123D01*
X1076581Y77685205D01*
X1073136Y77676279D01*
X1069711Y77667346D01*
X1066304Y77658406D01*
X1062915Y77649459D01*
X1059545Y77640505D01*
X1056195Y77631544D01*
X1052862Y77622576D01*
X1049549Y77613601D01*
X1046254Y77604619D01*
X1042978Y77595631D01*
X1039721Y77586635D01*
X1036483Y77577633D01*
X1033264Y77568623D01*
X1030063Y77559608D01*
X1026881Y77550585D01*
X1023719Y77541556D01*
X1020575Y77532521D01*
X1017450Y77523479D01*
X1014343Y77514430D01*
X1011256Y77505375D01*
X1008188Y77496313D01*
X1005139Y77487245D01*
X1002108Y77478171D01*
X999097Y77469091D01*
X996105Y77460004D01*
X993131Y77450911D01*
X990177Y77441812D01*
X987242Y77432707D01*
X984326Y77423595D01*
X981429Y77414478D01*
X978551Y77405354D01*
X975692Y77396225D01*
X972852Y77387090D01*
X970031Y77377949D01*
X967229Y77368802D01*
X964447Y77359649D01*
X961684Y77350490D01*
X958940Y77341326D01*
X956214Y77332156D01*
X953509Y77322981D01*
X950822Y77313799D01*
X948155Y77304613D01*
X945507Y77295420D01*
X942878Y77286223D01*
X940268Y77277019D01*
X937678Y77267811D01*
X935107Y77258597D01*
X932555Y77249378D01*
X930022Y77240153D01*
X927509Y77230923D01*
X925015Y77221688D01*
X922541Y77212448D01*
X920085Y77203203D01*
X917650Y77193953D01*
X915233Y77184697D01*
X912836Y77175437D01*
X910458Y77166172D01*
X908100Y77156902D01*
X905761Y77147626D01*
X903441Y77138347D01*
X901141Y77129062D01*
X898860Y77119773D01*
X896599Y77110478D01*
X894357Y77101180D01*
X892135Y77091876D01*
X889932Y77082569D01*
X887748Y77073256D01*
X885585Y77063939D01*
X883440Y77054617D01*
X881315Y77045292D01*
X879210Y77035961D01*
X877124Y77026627D01*
X875058Y77017287D01*
X873011Y77007945D01*
X870984Y76998597D01*
X868976Y76989246D01*
X866988Y76979889D01*
X865019Y76970530D01*
X863070Y76961166D01*
X861141Y76951798D01*
X859231Y76942426D01*
X857341Y76933051D01*
X855471Y76923670D01*
X853620Y76914287D01*
X851789Y76904899D01*
X849977Y76895509D01*
X848185Y76886113D01*
X846413Y76876715D01*
X844660Y76867312D01*
X842927Y76857907D01*
X841214Y76848497D01*
X839521Y76839084D01*
X837847Y76829667D01*
X836192Y76820248D01*
X834558Y76810824D01*
X832943Y76801398D01*
X831348Y76791967D01*
X829773Y76782534D01*
X828217Y76773097D01*
X826682Y76763657D01*
X825165Y76754214D01*
X823669Y76744768D01*
X822193Y76735318D01*
X820736Y76725866D01*
X819299Y76716410D01*
X817882Y76706952D01*
X816484Y76697490D01*
X815107Y76688027D01*
X813749Y76678559D01*
X812411Y76669089D01*
X811092Y76659616D01*
X809794Y76650141D01*
X808515Y76640662D01*
X807257Y76631182D01*
X806018Y76621698D01*
X804799Y76612212D01*
X803599Y76602723D01*
X802420Y76593232D01*
X801260Y76583738D01*
X800121Y76574242D01*
X799001Y76564743D01*
X797901Y76555242D01*
X796821Y76545738D01*
X795761Y76536233D01*
X794720Y76526725D01*
X793700Y76517216D01*
X792699Y76507703D01*
X791718Y76498189D01*
X790758Y76488672D01*
X789817Y76479154D01*
X788896Y76469633D01*
X787995Y76460111D01*
X787113Y76450586D01*
X786252Y76441060D01*
X785411Y76431531D01*
X784589Y76422002D01*
X783788Y76412469D01*
X783006Y76402936D01*
X782245Y76393400D01*
X781503Y76383863D01*
X780781Y76374324D01*
X780079Y76364784D01*
X779397Y76355242D01*
X778735Y76345699D01*
X778093Y76336153D01*
X777471Y76326608D01*
X776869Y76317059D01*
X776287Y76307511D01*
X775725Y76297959D01*
X775183Y76288408D01*
X774661Y76278854D01*
X774158Y76269300D01*
X773676Y76259744D01*
X773214Y76250188D01*
X772771Y76240629D01*
X772349Y76231071D01*
X771947Y76221510D01*
X771564Y76211950D01*
X771202Y76202387D01*
X770860Y76192825D01*
X770537Y76183260D01*
X770235Y76173696D01*
X769952Y76164129D01*
X769690Y76154564D01*
X769447Y76144996D01*
X769225Y76135428D01*
X769022Y76125859D01*
X768840Y76116290D01*
X768677Y76106720D01*
X768535Y76097150D01*
X768412Y76087578D01*
X768310Y76078007D01*
X768227Y76068434D01*
X768165Y76058862D01*
X768122Y76049288D01*
X768096Y76033751D01*
M02*
