%TF.GenerationSoftware,KiCad,Pcbnew,10.0.6*%
%TF.CreationDate,2026-09-26T13:08:46-04:00*%
%TF.ProjectId,new_fretboard_rev6,6e65775f-6672-4657-9462-6f6172645f72,rev?*%
%TF.SameCoordinates,Original*%
%TF.FileFunction,Soldermask,Top*%
%TF.FilePolarity,Negative*%
%FSLAX46Y46*%
G04 Gerber Fmt 4.6, Leading zero omitted, Abs format (unit mm)*
G04 Created by KiCad (PCBNEW 10.0.6) date 2026-09-26 13:08:46*
%MOMM*%
%LPD*%
G01*
G04 APERTURE LIST*
G04 Aperture macros list*
%AMRoundRect*
0 Rectangle with rounded corners*
0 $1 Rounding radius*
0 $2 $3 $4 $5 $6 $7 $8 $9 X,Y pos of 4 corners*
0 Add a 4 corners polygon primitive as box body*
4,1,4,$2,$3,$4,$5,$6,$7,$8,$9,$2,$3,0*
0 Add four circle primitives for the rounded corners*
1,1,$1+$1,$2,$3*
1,1,$1+$1,$4,$5*
1,1,$1+$1,$6,$7*
1,1,$1+$1,$8,$9*
0 Add four rect primitives between the rounded corners*
20,1,$1+$1,$2,$3,$4,$5,0*
20,1,$1+$1,$4,$5,$6,$7,0*
20,1,$1+$1,$6,$7,$8,$9,0*
20,1,$1+$1,$8,$9,$2,$3,0*%
%AMRotRect*
0 Rectangle, with rotation*
0 The origin of the aperture is its center*
0 $1 length*
0 $2 width*
0 $3 Rotation angle, in degrees counterclockwise*
0 Add horizontal line*
21,1,$1,$2,0,0,$3*%
G04 Aperture macros list end*
%ADD10R,1.700000X1.700000*%
%ADD11C,1.700000*%
%ADD12C,2.100000*%
%ADD13C,3.200000*%
%ADD14C,1.512000*%
%ADD15RoundRect,0.102000X-0.654000X-0.654000X0.654000X-0.654000X0.654000X0.654000X-0.654000X0.654000X0*%
%ADD16R,1.000000X1.000000*%
%ADD17R,0.450000X1.450000*%
%ADD18RoundRect,0.019050X-0.044450X0.105950X-0.044450X-0.105950X0.044450X-0.105950X0.044450X0.105950X0*%
%ADD19RoundRect,0.019050X-0.105950X-0.044450X0.105950X-0.044450X0.105950X0.044450X-0.105950X0.044450X0*%
%ADD20RotRect,1.000000X1.000000X90.670000*%
%ADD21RotRect,1.000000X1.000000X270.340000*%
%ADD22RotRect,1.000000X1.000000X180.340000*%
%ADD23RotRect,1.000000X1.000000X270.670000*%
%ADD24RoundRect,0.019050X-0.045686X0.105423X-0.043208X-0.106463X0.045686X-0.105423X0.043208X0.106463X0*%
%ADD25RotRect,1.000000X1.000000X90.340000*%
%ADD26RotRect,1.450000X0.450000X90.340000*%
%ADD27RotRect,1.700000X1.700000X180.670000*%
%ADD28RoundRect,0.019050X-0.105684X-0.045078X0.106212X-0.043821X0.105684X0.045078X-0.106212X0.043821X0*%
%ADD29RotRect,1.000000X1.000000X180.670000*%
%ADD30RotRect,1.000000X1.000000X0.670000*%
%ADD31RotRect,1.000000X1.000000X0.340000*%
%ADD32RoundRect,0.019050X-0.105423X-0.045686X0.106463X-0.043208X0.105423X0.045686X-0.106463X0.043208X0*%
%ADD33RotRect,1.450000X0.450000X90.670000*%
%ADD34RoundRect,0.019050X-0.045078X0.105684X-0.043821X-0.106212X0.045078X-0.105684X0.043821X0.106212X0*%
%ADD35RotRect,1.700000X1.700000X180.340000*%
%ADD36RotRect,1.700000X1.700000X179.330000*%
%ADD37RotRect,1.000000X1.000000X179.330000*%
%ADD38RotRect,1.000000X1.000000X359.330000*%
%ADD39RoundRect,0.019050X-0.106463X-0.043208X0.105423X-0.045686X0.106463X0.043208X-0.105423X0.045686X0*%
%ADD40RotRect,1.000000X1.000000X89.330000*%
%ADD41RotRect,1.450000X0.450000X89.330000*%
%ADD42RotRect,1.000000X1.000000X269.330000*%
%ADD43RoundRect,0.019050X-0.043208X0.106463X-0.045686X-0.105423X0.043208X-0.106463X0.045686X0.105423X0*%
%ADD44RoundRect,0.019050X-0.043821X0.106212X-0.045078X-0.105684X0.043821X-0.106212X0.045078X0.105684X0*%
%ADD45RotRect,1.000000X1.000000X89.660000*%
%ADD46RoundRect,0.019050X-0.106212X-0.043821X0.105684X-0.045078X0.106212X0.043821X-0.105684X0.045078X0*%
%ADD47RotRect,1.000000X1.000000X359.660000*%
%ADD48RotRect,1.000000X1.000000X269.660000*%
%ADD49RotRect,1.000000X1.000000X179.660000*%
%ADD50RotRect,1.700000X1.700000X179.660000*%
%ADD51RotRect,1.450000X0.450000X89.660000*%
G04 APERTURE END LIST*
D10*
%TO.C,J28*%
X33291000Y3305245D03*
%TD*%
%TO.C,J27*%
X2540000Y14498245D03*
D11*
X2540000Y11958245D03*
X2540000Y9418245D03*
%TD*%
D12*
%TO.C,H9*%
X576072000Y6624245D03*
%TD*%
%TO.C,H8*%
X576072000Y23896245D03*
%TD*%
%TO.C,H7*%
X576072000Y41168245D03*
%TD*%
%TO.C,H6*%
X576072000Y58440245D03*
%TD*%
%TO.C,H5*%
X576072000Y75458245D03*
%TD*%
%TO.C,H4*%
X41148000Y5862245D03*
%TD*%
%TO.C,H3*%
X42418000Y77744245D03*
%TD*%
D10*
%TO.C,J26*%
X13208000Y59964245D03*
%TD*%
%TO.C,J25*%
X7366000Y69870245D03*
D11*
X7366000Y67330245D03*
X7366000Y64790245D03*
X7366000Y62250245D03*
X7366000Y59710245D03*
X7366000Y57170245D03*
X7366000Y54630245D03*
%TD*%
D13*
%TO.C,H2*%
X11684000Y33040245D03*
%TD*%
%TO.C,H1*%
X11684000Y75458245D03*
%TD*%
D10*
%TO.C,J24*%
X17526000Y3576245D03*
D11*
X20066000Y3576245D03*
X22606000Y3576245D03*
%TD*%
D14*
%TO.C,J10*%
X12398000Y4846245D03*
X10398000Y4846245D03*
X8398000Y4846245D03*
D15*
X6398000Y4846245D03*
%TD*%
D11*
%TO.C,J16*%
X8636000Y17038245D03*
D10*
X6096000Y17038245D03*
%TD*%
%TO.C,J20*%
X6091000Y24150245D03*
D11*
X8631000Y24150245D03*
%TD*%
D10*
%TO.C,J19*%
X12954000Y24150245D03*
D11*
X15494000Y24150245D03*
%TD*%
D10*
%TO.C,J18*%
X6096000Y20594245D03*
D11*
X8636000Y20594245D03*
%TD*%
D10*
%TO.C,J17*%
X12949000Y20594245D03*
D11*
X15489000Y20594245D03*
%TD*%
D10*
%TO.C,J15*%
X12954000Y17038245D03*
D11*
X15494000Y17038245D03*
%TD*%
D10*
%TO.C,J14*%
X6121400Y13355245D03*
D11*
X8661400Y13355245D03*
%TD*%
D10*
%TO.C,J13*%
X12954000Y13482245D03*
D11*
X15494000Y13482245D03*
%TD*%
D10*
%TO.C,J12*%
X6146800Y9621445D03*
D11*
X8686800Y9621445D03*
%TD*%
D10*
%TO.C,U10*%
X18796000Y29484245D03*
D11*
X18796000Y32024245D03*
X18796000Y34564245D03*
X18796000Y37104245D03*
X18796000Y39644245D03*
X18796000Y42184245D03*
X18796000Y44724245D03*
X18796000Y47264245D03*
X18796000Y49804245D03*
X18796000Y52344245D03*
X18796000Y54884245D03*
X18796000Y57424245D03*
X18796000Y59964245D03*
X18796000Y62504245D03*
X18796000Y65044245D03*
X18796000Y67584245D03*
X18796000Y70124245D03*
X18796000Y72664245D03*
X18796000Y75204245D03*
X18796000Y77744245D03*
X3556000Y77744245D03*
X3556000Y75204245D03*
X3556000Y72664245D03*
X3556000Y70124245D03*
X3556000Y67584245D03*
X3556000Y65044245D03*
X3556000Y62504245D03*
X3556000Y59964245D03*
X3556000Y57424245D03*
X3556000Y54884245D03*
X3556000Y52344245D03*
X3556000Y49804245D03*
X3556000Y47264245D03*
X3556000Y44724245D03*
X3556000Y42184245D03*
X3556000Y39644245D03*
X3556000Y37104245D03*
X3556000Y34564245D03*
X3556000Y32024245D03*
X3556000Y29484245D03*
%TD*%
D10*
%TO.C,J11*%
X12954000Y9748445D03*
D11*
X15494000Y9748445D03*
%TD*%
D16*
%TO.C,C406*%
X31463651Y36909694D03*
X31463651Y35209694D03*
%TD*%
%TO.C,C412*%
X37461511Y36909694D03*
X37461511Y35209694D03*
%TD*%
D17*
%TO.C,U402*%
X34131870Y44816858D03*
X34781870Y44816858D03*
X35431870Y44816858D03*
X36081870Y44816858D03*
X36731870Y44816858D03*
X37381870Y44816858D03*
X38031870Y44816858D03*
X38031870Y38916858D03*
X37381870Y38916858D03*
X36731870Y38916858D03*
X36081870Y38916858D03*
X35431870Y38916858D03*
X34781870Y38916858D03*
X34131870Y38916858D03*
%TD*%
D16*
%TO.C,C410*%
X35962041Y36909694D03*
X35962041Y35209694D03*
%TD*%
%TO.C,R413*%
X39789051Y41170604D03*
X41489051Y41170604D03*
%TD*%
%TO.C,C408*%
X34462581Y36909694D03*
X34462581Y35209694D03*
%TD*%
%TO.C,C418*%
X37698777Y47219167D03*
X39398777Y47219167D03*
%TD*%
D18*
%TO.C,L402*%
X47438777Y40215967D03*
X47438777Y39855967D03*
%TD*%
D16*
%TO.C,R402*%
X29020670Y40465694D03*
X29020670Y38765694D03*
%TD*%
%TO.C,C404*%
X29274670Y36976458D03*
X29274670Y35276458D03*
%TD*%
%TO.C,R410*%
X41539851Y39473514D03*
X39839851Y39473514D03*
%TD*%
%TO.C,C414*%
X32384051Y42134458D03*
X32384051Y43834458D03*
%TD*%
%TO.C,C422*%
X32489977Y47371567D03*
X30789977Y47371567D03*
%TD*%
D19*
%TO.C,L408*%
X63539270Y40673058D03*
X63899270Y40673058D03*
%TD*%
D16*
%TO.C,R404*%
X32409451Y40465694D03*
X32409451Y38765694D03*
%TD*%
D19*
%TO.C,L404*%
X47939977Y40666367D03*
X48299977Y40666367D03*
%TD*%
D11*
%TO.C,J401*%
X22569070Y45542767D03*
X22569070Y43002767D03*
X22569070Y40462767D03*
X22569070Y37922767D03*
D10*
X22569070Y35382767D03*
%TD*%
D19*
%TO.C,L407*%
X61830670Y40444458D03*
X62190670Y40444458D03*
%TD*%
D16*
%TO.C,R414*%
X39789051Y42984458D03*
X41489051Y42984458D03*
%TD*%
%TO.C,C421*%
X32489977Y45796767D03*
X30789977Y45796767D03*
%TD*%
D11*
%TO.C,J402*%
X26226670Y45745967D03*
X26226670Y43205967D03*
X26226670Y40665967D03*
X26226670Y38125967D03*
D10*
X26226670Y35585967D03*
%TD*%
D16*
%TO.C,R408*%
X32963121Y35209694D03*
X32963121Y36909694D03*
%TD*%
%TO.C,C416*%
X39781577Y45644367D03*
X41481577Y45644367D03*
%TD*%
%TO.C,R406*%
X30798670Y40465694D03*
X30798670Y38765694D03*
%TD*%
%TO.C,C402*%
X29386851Y42134458D03*
X29386851Y43834458D03*
%TD*%
D20*
%TO.C,R608*%
X33093863Y63289182D03*
X33073985Y64989066D03*
%TD*%
D21*
%TO.C,C502*%
X29408045Y57874892D03*
X29418133Y56174922D03*
%TD*%
D22*
%TO.C,C516*%
X41491818Y59756539D03*
X39791848Y59746451D03*
%TD*%
D23*
%TO.C,R602*%
X29090222Y68498722D03*
X29110100Y66798838D03*
%TD*%
%TO.C,C602*%
X29436864Y70171654D03*
X29416986Y71871538D03*
%TD*%
D21*
%TO.C,R504*%
X32460670Y52824154D03*
X32450582Y54524124D03*
%TD*%
D20*
%TO.C,C608*%
X34573343Y65006600D03*
X34593221Y63306716D03*
%TD*%
D22*
%TO.C,C518*%
X39399710Y61318952D03*
X37699740Y61308864D03*
%TD*%
D24*
%TO.C,L602*%
X47509989Y68464384D03*
X47514199Y68104408D03*
%TD*%
D25*
%TO.C,C508*%
X34534866Y49280400D03*
X34524778Y50980370D03*
%TD*%
D26*
%TO.C,U502*%
X34182162Y52985535D03*
X34832150Y52989393D03*
X35482139Y52993250D03*
X36132128Y52997107D03*
X36782116Y53000964D03*
X37432105Y53004821D03*
X38082093Y53008678D03*
X38047082Y58908575D03*
X37397094Y58904717D03*
X36747105Y58900860D03*
X36097116Y58897003D03*
X35447128Y58893146D03*
X34797139Y58889289D03*
X34147151Y58885432D03*
%TD*%
D11*
%TO.C,J602*%
X26234668Y73745963D03*
X26264369Y71206137D03*
X26294070Y68666311D03*
X26323772Y66126484D03*
D27*
X26353473Y63586658D03*
%TD*%
D20*
%TO.C,C610*%
X36072700Y65024134D03*
X36092578Y63324250D03*
%TD*%
D28*
%TO.C,L504*%
X48339638Y54819089D03*
X47979645Y54816953D03*
%TD*%
D25*
%TO.C,R508*%
X33025344Y50971472D03*
X33035432Y49271502D03*
%TD*%
D29*
%TO.C,C616*%
X39789836Y73802874D03*
X41489720Y73822752D03*
%TD*%
D28*
%TO.C,L508*%
X63938616Y54918347D03*
X63578623Y54916211D03*
%TD*%
D30*
%TO.C,R614*%
X39828413Y71143234D03*
X41528297Y71163112D03*
%TD*%
D23*
%TO.C,R604*%
X32478771Y68538349D03*
X32498649Y66838465D03*
%TD*%
D31*
%TO.C,C521*%
X30799502Y59845492D03*
X32499472Y59855580D03*
%TD*%
D21*
%TO.C,R502*%
X29071949Y52804044D03*
X29061861Y54504014D03*
%TD*%
D32*
%TO.C,L604*%
X48005888Y68920613D03*
X48365864Y68924823D03*
%TD*%
D30*
%TO.C,C622*%
X32478538Y75444691D03*
X30778654Y75424813D03*
%TD*%
D21*
%TO.C,C514*%
X32405192Y57892678D03*
X32415280Y56192708D03*
%TD*%
D20*
%TO.C,C604*%
X29385006Y65012695D03*
X29404884Y63312811D03*
%TD*%
D33*
%TO.C,U602*%
X34150192Y72909356D03*
X34800147Y72916957D03*
X35450103Y72924558D03*
X36100058Y72932158D03*
X36750014Y72939759D03*
X37399969Y72947360D03*
X38049925Y72954961D03*
X38118916Y67055364D03*
X37468961Y67047763D03*
X36819005Y67040162D03*
X36169050Y67032562D03*
X35519094Y67024961D03*
X34869139Y67017360D03*
X34219183Y67009759D03*
%TD*%
D22*
%TO.C,R510*%
X39886739Y53576054D03*
X41586709Y53586142D03*
%TD*%
D34*
%TO.C,L502*%
X47483262Y54003593D03*
X47481126Y54363586D03*
%TD*%
D20*
%TO.C,C612*%
X37572068Y65041668D03*
X37591946Y63341784D03*
%TD*%
D35*
%TO.C,J502*%
X26296867Y49607793D03*
D11*
X26281794Y52147748D03*
X26266722Y54687704D03*
X26251649Y57227659D03*
X26236577Y59767614D03*
%TD*%
D32*
%TO.C,L608*%
X63604036Y69109713D03*
X63964012Y69113923D03*
%TD*%
D23*
%TO.C,C614*%
X32433859Y70206702D03*
X32413981Y71906586D03*
%TD*%
D25*
%TO.C,C504*%
X29346650Y49316377D03*
X29336562Y51016347D03*
%TD*%
%TO.C,C510*%
X36034300Y49289298D03*
X36024212Y50989268D03*
%TD*%
D35*
%TO.C,J501*%
X22640537Y49382893D03*
D11*
X22625464Y51922848D03*
X22610392Y54462804D03*
X22595319Y57002759D03*
X22580247Y59542714D03*
%TD*%
D29*
%TO.C,C618*%
X37688764Y75353211D03*
X39388648Y75373089D03*
%TD*%
D31*
%TO.C,C522*%
X30790157Y61420264D03*
X32490127Y61430352D03*
%TD*%
D32*
%TO.C,L607*%
X61898226Y68861149D03*
X62258202Y68865359D03*
%TD*%
D28*
%TO.C,L507*%
X62231403Y54679612D03*
X61871410Y54677476D03*
%TD*%
D30*
%TO.C,R613*%
X39849623Y69329504D03*
X41549507Y69349382D03*
%TD*%
D29*
%TO.C,R610*%
X41620149Y67653002D03*
X39920265Y67633124D03*
%TD*%
D21*
%TO.C,R506*%
X30849918Y52814595D03*
X30839830Y54514565D03*
%TD*%
D11*
%TO.C,J601*%
X22579695Y73500007D03*
X22609396Y70960181D03*
X22639097Y68420355D03*
X22668799Y65880528D03*
D27*
X22698500Y63340702D03*
%TD*%
D25*
%TO.C,C506*%
X31535989Y49262604D03*
X31525901Y50962574D03*
%TD*%
D20*
%TO.C,C606*%
X31574618Y64971532D03*
X31594496Y63271648D03*
%TD*%
D25*
%TO.C,C512*%
X37533743Y49298196D03*
X37523655Y50998166D03*
%TD*%
D31*
%TO.C,R514*%
X41515076Y57096722D03*
X39815106Y57086634D03*
%TD*%
%TO.C,R513*%
X41525840Y55282900D03*
X39825870Y55272812D03*
%TD*%
D30*
%TO.C,C621*%
X32496953Y73869999D03*
X30797069Y73850121D03*
%TD*%
D23*
%TO.C,R606*%
X30868100Y68519513D03*
X30887978Y66819629D03*
%TD*%
D11*
%TO.C,J2*%
X26240443Y17703615D03*
X26210742Y15163789D03*
X26181041Y12623963D03*
X26151339Y10084136D03*
D36*
X26121638Y7544310D03*
%TD*%
D37*
%TO.C,C16*%
X39793235Y17443517D03*
X41493119Y17423639D03*
%TD*%
D38*
%TO.C,R13*%
X41448279Y12950094D03*
X39748395Y12969972D03*
%TD*%
%TO.C,C22*%
X32522331Y19255864D03*
X30822447Y19275742D03*
%TD*%
D39*
%TO.C,L7*%
X61780016Y11986135D03*
X62139992Y11981925D03*
%TD*%
D11*
%TO.C,J1*%
X22580717Y17543198D03*
X22551016Y15003372D03*
X22521315Y12463546D03*
X22491613Y9923719D03*
D36*
X22461912Y7383893D03*
%TD*%
D40*
%TO.C,C4*%
X29185689Y8899064D03*
X29165811Y7199180D03*
%TD*%
D38*
%TO.C,C21*%
X32503916Y17681171D03*
X30804032Y17701049D03*
%TD*%
D37*
%TO.C,R10*%
X39779347Y11272404D03*
X41479231Y11252526D03*
%TD*%
D41*
%TO.C,U2*%
X34134238Y16682130D03*
X34784194Y16674529D03*
X35434149Y16666928D03*
X36084105Y16659327D03*
X36734060Y16651727D03*
X37384016Y16644126D03*
X38033971Y16636525D03*
X37964980Y10736928D03*
X37315024Y10744529D03*
X36665069Y10752130D03*
X36015113Y10759731D03*
X35365158Y10767331D03*
X34715202Y10774932D03*
X34065247Y10782533D03*
%TD*%
D37*
%TO.C,C18*%
X37728993Y19042564D03*
X39428877Y19022686D03*
%TD*%
D42*
%TO.C,R6*%
X30730508Y10670356D03*
X30750386Y12370240D03*
%TD*%
%TO.C,R2*%
X28972507Y12391031D03*
X28952629Y10691147D03*
%TD*%
D43*
%TO.C,L2*%
X47386436Y11925950D03*
X47382226Y11565974D03*
%TD*%
D42*
%TO.C,C14*%
X32355173Y14020351D03*
X32375051Y15720235D03*
%TD*%
D39*
%TO.C,L8*%
X63491172Y12194740D03*
X63851148Y12190530D03*
%TD*%
D40*
%TO.C,R8*%
X32873107Y8789174D03*
X32853229Y7089290D03*
%TD*%
%TO.C,C6*%
X31373740Y8806708D03*
X31353862Y7106824D03*
%TD*%
D42*
%TO.C,C2*%
X29358178Y14055398D03*
X29378056Y15755282D03*
%TD*%
D40*
%TO.C,C10*%
X35871822Y8754106D03*
X35851944Y7054222D03*
%TD*%
D38*
%TO.C,R14*%
X41469489Y14763824D03*
X39769605Y14783702D03*
%TD*%
D42*
%TO.C,R4*%
X32341179Y10651520D03*
X32361057Y12351404D03*
%TD*%
D39*
%TO.C,L4*%
X47892868Y12370458D03*
X48252844Y12366248D03*
%TD*%
D40*
%TO.C,C8*%
X34372464Y8771640D03*
X34352586Y7071756D03*
%TD*%
%TO.C,C12*%
X37371189Y8736572D03*
X37351311Y7036688D03*
%TD*%
D44*
%TO.C,L302*%
X47381853Y26120538D03*
X47379717Y25760545D03*
%TD*%
D45*
%TO.C,R308*%
X32876745Y21200253D03*
X32886833Y22900223D03*
%TD*%
%TO.C,C304*%
X29198843Y22988874D03*
X29188755Y21288904D03*
%TD*%
D46*
%TO.C,L308*%
X63484776Y26482079D03*
X63844769Y26479943D03*
%TD*%
D45*
%TO.C,C312*%
X37385143Y22873529D03*
X37375055Y21173559D03*
%TD*%
%TO.C,C306*%
X31387389Y22909121D03*
X31377301Y21209151D03*
%TD*%
D47*
%TO.C,R314*%
X39748691Y28934375D03*
X41448661Y28924287D03*
%TD*%
D48*
%TO.C,C314*%
X32338777Y28128332D03*
X32348865Y29828302D03*
%TD*%
%TO.C,R302*%
X28965553Y26479556D03*
X28955465Y24779586D03*
%TD*%
D46*
%TO.C,L307*%
X61774849Y26263622D03*
X62134842Y26261486D03*
%TD*%
D47*
%TO.C,C322*%
X32475778Y33364720D03*
X30775808Y33374808D03*
%TD*%
%TO.C,R313*%
X39737927Y27120553D03*
X41437897Y27110465D03*
%TD*%
D45*
%TO.C,C310*%
X35885700Y22882427D03*
X35875612Y21182457D03*
%TD*%
D49*
%TO.C,C316*%
X39757001Y31594281D03*
X41456971Y31584193D03*
%TD*%
D46*
%TO.C,L304*%
X47885718Y26567956D03*
X48245711Y26565820D03*
%TD*%
D48*
%TO.C,C302*%
X29341630Y28146117D03*
X29351718Y29846087D03*
%TD*%
D11*
%TO.C,J302*%
X26202935Y31776315D03*
X26187863Y29236360D03*
X26172790Y26696405D03*
X26157718Y24156449D03*
D50*
X26142645Y21616494D03*
%TD*%
D48*
%TO.C,R304*%
X32354274Y26459446D03*
X32344186Y24759476D03*
%TD*%
D51*
%TO.C,U302*%
X34102483Y30800313D03*
X34752471Y30796455D03*
X35402460Y30792598D03*
X36052449Y30788741D03*
X36702437Y30784884D03*
X37352426Y30781027D03*
X38002414Y30777170D03*
X37967403Y24877273D03*
X37317415Y24881131D03*
X36667426Y24884988D03*
X36017437Y24888845D03*
X35367449Y24892702D03*
X34717460Y24896559D03*
X34067472Y24900416D03*
%TD*%
D49*
%TO.C,C318*%
X37683582Y33181413D03*
X39383552Y33171325D03*
%TD*%
D11*
%TO.C,J301*%
X22544194Y31594823D03*
X22529122Y29054868D03*
X22514049Y26514913D03*
X22498977Y23974957D03*
D50*
X22483904Y21435002D03*
%TD*%
D45*
%TO.C,C308*%
X34386266Y22891325D03*
X34376178Y21191355D03*
%TD*%
D49*
%TO.C,R310*%
X41478625Y25413103D03*
X39778655Y25423191D03*
%TD*%
D47*
%TO.C,C321*%
X32466433Y31789947D03*
X30766463Y31800035D03*
%TD*%
D48*
%TO.C,R306*%
X30743521Y26469005D03*
X30733433Y24769035D03*
%TD*%
M02*
