%TF.GenerationSoftware,KiCad,Pcbnew,10.0.6*%
%TF.CreationDate,2026-09-26T13:08:46-04:00*%
%TF.ProjectId,new_fretboard_rev6,6e65775f-6672-4657-9462-6f6172645f72,rev?*%
%TF.SameCoordinates,Original*%
%TF.FileFunction,Paste,Bot*%
%TF.FilePolarity,Positive*%
%FSLAX46Y46*%
G04 Gerber Fmt 4.6, Leading zero omitted, Abs format (unit mm)*
G04 Created by KiCad (PCBNEW 10.0.6) date 2026-09-26 13:08:46*
%MOMM*%
%LPD*%
G01*
G04 APERTURE LIST*
G04 Aperture macros list*
%AMRoundRect*
0 Rectangle with rounded corners*
0 $1 Rounding radius*
0 $2 $3 $4 $5 $6 $7 $8 $9 X,Y pos of 4 corners*
0 Add a 4 corners polygon primitive as box body*
4,1,4,$2,$3,$4,$5,$6,$7,$8,$9,$2,$3,0*
0 Add four circle primitives for the rounded corners*
1,1,$1+$1,$2,$3*
1,1,$1+$1,$4,$5*
1,1,$1+$1,$6,$7*
1,1,$1+$1,$8,$9*
0 Add four rect primitives between the rounded corners*
20,1,$1+$1,$2,$3,$4,$5,0*
20,1,$1+$1,$4,$5,$6,$7,0*
20,1,$1+$1,$6,$7,$8,$9,0*
20,1,$1+$1,$8,$9,$2,$3,0*%
%AMRotRect*
0 Rectangle, with rotation*
0 The origin of the aperture is its center*
0 $1 length*
0 $2 width*
0 $3 Rotation angle, in degrees counterclockwise*
0 Add horizontal line*
21,1,$1,$2,0,0,$3*%
G04 Aperture macros list end*
%ADD10RotRect,1.000000X1.000000X89.330000*%
%ADD11R,1.000000X1.000000*%
%ADD12RoundRect,0.019050X-0.105950X-0.044450X0.105950X-0.044450X0.105950X0.044450X-0.105950X0.044450X0*%
%ADD13RoundRect,0.019050X0.105950X0.044450X-0.105950X0.044450X-0.105950X-0.044450X0.105950X-0.044450X0*%
%ADD14R,0.450000X1.450000*%
%ADD15RotRect,1.450000X0.450000X270.670000*%
%ADD16RoundRect,0.019050X-0.105684X-0.045078X0.106212X-0.043821X0.105684X0.045078X-0.106212X0.043821X0*%
%ADD17RotRect,1.000000X1.000000X270.340000*%
%ADD18RotRect,1.000000X1.000000X180.670000*%
%ADD19RoundRect,0.019050X-0.105423X-0.045686X0.106463X-0.043208X0.105423X0.045686X-0.106463X0.043208X0*%
%ADD20RotRect,1.000000X1.000000X0.670000*%
%ADD21RotRect,1.000000X1.000000X0.340000*%
%ADD22RotRect,1.000000X1.000000X90.340000*%
%ADD23RotRect,1.000000X1.000000X90.670000*%
%ADD24RotRect,1.000000X1.000000X180.340000*%
%ADD25RotRect,1.000000X1.000000X270.670000*%
%ADD26RoundRect,0.019050X0.105423X0.045686X-0.106463X0.043208X-0.105423X-0.045686X0.106463X-0.043208X0*%
%ADD27RotRect,1.450000X0.450000X270.340000*%
%ADD28RoundRect,0.019050X0.105684X0.045078X-0.106212X0.043821X-0.105684X-0.045078X0.106212X-0.043821X0*%
%ADD29RotRect,1.000000X1.000000X269.330000*%
%ADD30RotRect,1.000000X1.000000X359.330000*%
%ADD31RoundRect,0.019050X0.106463X0.043208X-0.105423X0.045686X-0.106463X-0.043208X0.105423X-0.045686X0*%
%ADD32RotRect,1.000000X1.000000X179.330000*%
%ADD33RotRect,1.450000X0.450000X269.330000*%
%ADD34RoundRect,0.019050X-0.106463X-0.043208X0.105423X-0.045686X0.106463X0.043208X-0.105423X0.045686X0*%
%ADD35RoundRect,0.019050X-0.106212X-0.043821X0.105684X-0.045078X0.106212X0.043821X-0.105684X0.045078X0*%
%ADD36RotRect,1.000000X1.000000X179.660000*%
%ADD37RotRect,1.000000X1.000000X269.660000*%
%ADD38RotRect,1.000000X1.000000X89.660000*%
%ADD39RotRect,1.000000X1.000000X359.660000*%
%ADD40RoundRect,0.019050X0.106212X0.043821X-0.105684X0.045078X-0.106212X-0.043821X0.105684X-0.045078X0*%
%ADD41RotRect,1.450000X0.450000X269.660000*%
G04 APERTURE END LIST*
D10*
%TO.C,R3*%
X32129278Y15334991D03*
X32109400Y13635107D03*
%TD*%
D11*
%TO.C,R411*%
X39522400Y42279548D03*
X41222400Y42279548D03*
%TD*%
%TO.C,R403*%
X32142800Y41746367D03*
X32142800Y43446367D03*
%TD*%
%TO.C,C401*%
X29120200Y39991967D03*
X29120200Y38291967D03*
%TD*%
%TO.C,C419*%
X33820250Y36875568D03*
X33820250Y35175568D03*
%TD*%
%TO.C,R409*%
X41273200Y43976638D03*
X39573200Y43976638D03*
%TD*%
%TO.C,C415*%
X38323410Y36875568D03*
X38323410Y35175568D03*
%TD*%
%TO.C,C407*%
X35436377Y46965167D03*
X33736377Y46965167D03*
%TD*%
%TO.C,C409*%
X37343177Y47168367D03*
X39043177Y47168367D03*
%TD*%
%TO.C,C405*%
X30369977Y45149967D03*
X30369977Y46849967D03*
%TD*%
D12*
%TO.C,L405*%
X61830670Y39936458D03*
X62190670Y39936458D03*
%TD*%
D11*
%TO.C,R412*%
X39522400Y40443568D03*
X41222400Y40443568D03*
%TD*%
D13*
%TO.C,L403*%
X48280670Y43238458D03*
X47920670Y43238458D03*
%TD*%
D11*
%TO.C,C417*%
X36822350Y36875568D03*
X36822350Y35175568D03*
%TD*%
D12*
%TO.C,L401*%
X48622670Y42984458D03*
X48982670Y42984458D03*
%TD*%
D11*
%TO.C,R401*%
X28766670Y41644767D03*
X28766670Y43344767D03*
%TD*%
D14*
%TO.C,U401*%
X33945050Y38776638D03*
X34595050Y38776638D03*
X35245050Y38776638D03*
X35895050Y38776638D03*
X36545050Y38776638D03*
X37195050Y38776638D03*
X37845050Y38776638D03*
X37845050Y44676638D03*
X37195050Y44676638D03*
X36545050Y44676638D03*
X35895050Y44676638D03*
X35245050Y44676638D03*
X34595050Y44676638D03*
X33945050Y44676638D03*
%TD*%
D12*
%TO.C,L406*%
X61830670Y40190458D03*
X62190670Y40190458D03*
%TD*%
D11*
%TO.C,C420*%
X35321300Y36875568D03*
X35321300Y35175568D03*
%TD*%
%TO.C,C413*%
X31690777Y39534767D03*
X31690777Y37834767D03*
%TD*%
%TO.C,R405*%
X30544670Y41746367D03*
X30544670Y43446367D03*
%TD*%
%TO.C,C411*%
X39527577Y45542767D03*
X41227577Y45542767D03*
%TD*%
%TO.C,C403*%
X28642777Y45099167D03*
X28642777Y46799167D03*
%TD*%
%TO.C,R407*%
X31995577Y46849967D03*
X31995577Y45149967D03*
%TD*%
D15*
%TO.C,U601*%
X34034016Y66867364D03*
X34683972Y66874965D03*
X35333927Y66882566D03*
X35983883Y66890167D03*
X36633838Y66897767D03*
X37283794Y66905368D03*
X37933749Y66912969D03*
X37864758Y72812566D03*
X37214802Y72804965D03*
X36564847Y72797364D03*
X35914891Y72789763D03*
X35264936Y72782163D03*
X34614980Y72774562D03*
X33965025Y72766961D03*
%TD*%
D16*
%TO.C,L506*%
X62232910Y54425617D03*
X61872917Y54423481D03*
%TD*%
D17*
%TO.C,C505*%
X30373260Y60896181D03*
X30383348Y59196211D03*
%TD*%
D18*
%TO.C,C611*%
X39537042Y73698311D03*
X41236926Y73718189D03*
%TD*%
D19*
%TO.C,L606*%
X61901196Y68607167D03*
X62261172Y68611377D03*
%TD*%
D20*
%TO.C,R611*%
X39570023Y70435254D03*
X41269907Y70455132D03*
%TD*%
D21*
%TO.C,R512*%
X41263508Y54554295D03*
X39563538Y54544207D03*
%TD*%
D22*
%TO.C,C517*%
X36894796Y49260277D03*
X36884708Y50960247D03*
%TD*%
D23*
%TO.C,R603*%
X32197162Y69815816D03*
X32177284Y71515700D03*
%TD*%
D22*
%TO.C,R503*%
X32166249Y57503162D03*
X32176337Y55803192D03*
%TD*%
%TO.C,C515*%
X38395829Y49269185D03*
X38385741Y50969155D03*
%TD*%
D24*
%TO.C,C509*%
X39044417Y61266043D03*
X37344447Y61255955D03*
%TD*%
D23*
%TO.C,C617*%
X36933350Y65000070D03*
X36953228Y63300186D03*
%TD*%
D20*
%TO.C,R612*%
X39591492Y68599400D03*
X41291376Y68619278D03*
%TD*%
D25*
%TO.C,C605*%
X30384661Y73198453D03*
X30364783Y74898337D03*
%TD*%
D23*
%TO.C,C613*%
X31771032Y67599082D03*
X31790910Y65899198D03*
%TD*%
D24*
%TO.C,C511*%
X41238425Y59653434D03*
X39538455Y59643346D03*
%TD*%
D21*
%TO.C,C507*%
X33738917Y61031355D03*
X35438887Y61041443D03*
%TD*%
D22*
%TO.C,C501*%
X29174289Y52330916D03*
X29164201Y54030886D03*
%TD*%
D17*
%TO.C,R507*%
X32008919Y59205857D03*
X31998831Y60905827D03*
%TD*%
D22*
%TO.C,C520*%
X35393772Y49251370D03*
X35383684Y50951340D03*
%TD*%
D25*
%TO.C,C603*%
X28658173Y73127460D03*
X28638295Y74827344D03*
%TD*%
%TO.C,R607*%
X31990272Y74917346D03*
X32010150Y73217462D03*
%TD*%
D26*
%TO.C,L603*%
X48316482Y71496513D03*
X47956506Y71492303D03*
%TD*%
D22*
%TO.C,R505*%
X30568147Y57493678D03*
X30578235Y55793708D03*
%TD*%
D17*
%TO.C,C503*%
X28646391Y60835132D03*
X28656479Y59135162D03*
%TD*%
D27*
%TO.C,U501*%
X33961167Y58744106D03*
X34611155Y58747963D03*
X35261144Y58751820D03*
X35911132Y58755677D03*
X36561121Y58759534D03*
X37211110Y58763391D03*
X37861098Y58767249D03*
X37896109Y52867352D03*
X37246121Y52863495D03*
X36596132Y52859638D03*
X35946144Y52855781D03*
X35296155Y52851924D03*
X34646166Y52848067D03*
X33996178Y52844209D03*
%TD*%
D28*
%TO.C,L503*%
X47945075Y57388884D03*
X48305068Y57391020D03*
%TD*%
D21*
%TO.C,R511*%
X41252613Y56390243D03*
X39552643Y56380155D03*
%TD*%
D23*
%TO.C,R601*%
X28822451Y69674745D03*
X28802573Y71374629D03*
%TD*%
D19*
%TO.C,L605*%
X61904167Y68353184D03*
X62264143Y68357394D03*
%TD*%
D16*
%TO.C,L505*%
X62234417Y54171621D03*
X61874424Y54169485D03*
%TD*%
D23*
%TO.C,C619*%
X33931455Y64964966D03*
X33951333Y63265082D03*
%TD*%
D24*
%TO.C,R509*%
X39593371Y58077516D03*
X41293341Y58087604D03*
%TD*%
D18*
%TO.C,R609*%
X41300859Y72152700D03*
X39600975Y72132822D03*
%TD*%
D22*
%TO.C,R501*%
X28790781Y57381529D03*
X28800869Y55681559D03*
%TD*%
D23*
%TO.C,R605*%
X30599142Y69797129D03*
X30579264Y71497013D03*
%TD*%
D22*
%TO.C,C519*%
X33892749Y49242463D03*
X33882661Y50942433D03*
%TD*%
D23*
%TO.C,C601*%
X29195285Y68026192D03*
X29215163Y66326308D03*
%TD*%
D22*
%TO.C,C513*%
X31747533Y51888978D03*
X31737445Y53588948D03*
%TD*%
D23*
%TO.C,C620*%
X35432402Y64982518D03*
X35452280Y63282634D03*
%TD*%
D19*
%TO.C,L601*%
X48661428Y71246529D03*
X49021404Y71250739D03*
%TD*%
D18*
%TO.C,C609*%
X37333782Y75298256D03*
X39033666Y75318134D03*
%TD*%
D23*
%TO.C,C615*%
X38434307Y65017623D03*
X38454185Y63317739D03*
%TD*%
D16*
%TO.C,L501*%
X49008563Y57141190D03*
X48648570Y57139054D03*
%TD*%
D20*
%TO.C,C607*%
X35429489Y75072772D03*
X33729605Y75052894D03*
%TD*%
D29*
%TO.C,C5*%
X30396376Y18759089D03*
X30376498Y17059205D03*
%TD*%
D30*
%TO.C,C7*%
X35463778Y18815038D03*
X33763894Y18834916D03*
%TD*%
D31*
%TO.C,L3*%
X48263615Y14938389D03*
X47903639Y14942599D03*
%TD*%
D10*
%TO.C,R1*%
X28752191Y15272877D03*
X28732313Y13572993D03*
%TD*%
D32*
%TO.C,C11*%
X39538065Y17344894D03*
X41237949Y17325016D03*
%TD*%
D29*
%TO.C,R7*%
X32001987Y17040196D03*
X32021865Y18740080D03*
%TD*%
D33*
%TO.C,U1*%
X33876801Y10644507D03*
X34526756Y10636906D03*
X35176712Y10629305D03*
X35826667Y10621705D03*
X36476623Y10614104D03*
X37126578Y10606503D03*
X37776534Y10598902D03*
X37845525Y16498499D03*
X37195570Y16506100D03*
X36545614Y16513701D03*
X35895659Y16521301D03*
X35245703Y16528902D03*
X34595748Y16536503D03*
X33945792Y16544104D03*
%TD*%
D10*
%TO.C,C19*%
X33729778Y8745027D03*
X33709900Y7045143D03*
%TD*%
D34*
%TO.C,L5*%
X61774076Y11478169D03*
X62134052Y11473959D03*
%TD*%
D10*
%TO.C,C13*%
X31631546Y11428945D03*
X31611668Y9729061D03*
%TD*%
D30*
%TO.C,R11*%
X41194614Y14062081D03*
X39494730Y14081959D03*
%TD*%
D29*
%TO.C,C3*%
X28648822Y17028605D03*
X28668700Y18728489D03*
%TD*%
D10*
%TO.C,C20*%
X35230726Y8727475D03*
X35210848Y7027591D03*
%TD*%
%TO.C,C17*%
X36711795Y7010039D03*
X36731673Y8709923D03*
%TD*%
D32*
%TO.C,C9*%
X37372823Y18995926D03*
X39072707Y18976048D03*
%TD*%
D10*
%TO.C,C1*%
X29066491Y11916172D03*
X29046613Y10216288D03*
%TD*%
D34*
%TO.C,L6*%
X61777046Y11732152D03*
X62137022Y11727942D03*
%TD*%
D10*
%TO.C,R5*%
X30511380Y13653795D03*
X30531258Y15353679D03*
%TD*%
D34*
%TO.C,L1*%
X48602620Y14680408D03*
X48962596Y14676198D03*
%TD*%
D10*
%TO.C,C15*%
X38212752Y6992486D03*
X38232630Y8692370D03*
%TD*%
D30*
%TO.C,R12*%
X41173145Y12226226D03*
X39473261Y12246104D03*
%TD*%
D32*
%TO.C,R9*%
X39565371Y15778339D03*
X41265255Y15758461D03*
%TD*%
D35*
%TO.C,L305*%
X61771835Y25755631D03*
X62131828Y25753495D03*
%TD*%
D36*
%TO.C,R309*%
X41238701Y29917730D03*
X39538731Y29927818D03*
%TD*%
D37*
%TO.C,R307*%
X31978292Y32846063D03*
X31968204Y31146093D03*
%TD*%
D38*
%TO.C,C313*%
X31630088Y25532800D03*
X31620000Y23832830D03*
%TD*%
D39*
%TO.C,C307*%
X35419715Y32940843D03*
X33719745Y32950931D03*
%TD*%
%TO.C,R311*%
X39477861Y28231059D03*
X41177831Y28220971D03*
%TD*%
D36*
%TO.C,C309*%
X37327687Y33132724D03*
X39027657Y33122636D03*
%TD*%
D35*
%TO.C,L301*%
X48582154Y28881955D03*
X48942147Y28879819D03*
%TD*%
D37*
%TO.C,C305*%
X30342633Y31155739D03*
X30352721Y32855709D03*
%TD*%
D38*
%TO.C,R303*%
X32095227Y27741679D03*
X32105315Y29441649D03*
%TD*%
%TO.C,C301*%
X29062270Y26005246D03*
X29052182Y24305276D03*
%TD*%
D35*
%TO.C,L306*%
X61773342Y26009627D03*
X62133335Y26007491D03*
%TD*%
D38*
%TO.C,R305*%
X30497125Y27751162D03*
X30507213Y29451132D03*
%TD*%
%TO.C,C317*%
X36745791Y22843197D03*
X36735703Y21143227D03*
%TD*%
%TO.C,C319*%
X33743744Y22861012D03*
X33733656Y21161042D03*
%TD*%
%TO.C,C320*%
X35244768Y22852104D03*
X35234680Y21152134D03*
%TD*%
D36*
%TO.C,C311*%
X39502402Y31494190D03*
X41202372Y31484102D03*
%TD*%
D37*
%TO.C,C303*%
X28615162Y31115189D03*
X28625250Y32815159D03*
%TD*%
D40*
%TO.C,L303*%
X48241667Y29137980D03*
X47881674Y29140116D03*
%TD*%
D38*
%TO.C,R301*%
X28718554Y27660115D03*
X28728642Y29360085D03*
%TD*%
%TO.C,C315*%
X38246825Y22834289D03*
X38236737Y21134319D03*
%TD*%
D41*
%TO.C,U301*%
X33879823Y24761307D03*
X34529811Y24757450D03*
X35179800Y24753593D03*
X35829788Y24749736D03*
X36479777Y24745879D03*
X37129766Y24742022D03*
X37779754Y24738164D03*
X37814765Y30638061D03*
X37164777Y30641918D03*
X36514788Y30645775D03*
X35864800Y30649632D03*
X35214811Y30653489D03*
X34564822Y30657346D03*
X33914834Y30661204D03*
%TD*%
D39*
%TO.C,R312*%
X39466966Y26395112D03*
X41166936Y26385024D03*
%TD*%
M02*
