M48
; DRILL file KiCad 10.0.6 date 2026-09-26T13:08:52
; FORMAT={-:-/ absolute / metric / decimal}
; #@! TF.CreationDate,2026-09-26T13:08:52-04:00
; #@! TF.GenerationSoftware,Kicad,Pcbnew,10.0.6
; #@! TF.FileFunction,Plated,1,4,PTH
FMAT,2
METRIC
; #@! TA.AperFunction,Plated,PTH,ViaDrill
T1C0.200
; #@! TA.AperFunction,Plated,PTH,ViaDrill
T2C0.203
; #@! TA.AperFunction,Plated,PTH,ViaDrill
T3C0.500
; #@! TA.AperFunction,Plated,PTH,ComponentDrill
T4C0.800
; #@! TA.AperFunction,Plated,PTH,ComponentDrill
T5C1.000
; #@! TA.AperFunction,Plated,PTH,ComponentDrill
T6C1.100
%
G90
G05
T1
X3.556Y42.184
X11.684Y67.838
X12.446Y66.568
X16.764Y56.154
X18.796Y57.424
X20.574Y56.154
X20.828Y51.582
X27.664Y75.573
X27.677Y61.587
X27.678Y47.556
X27.712Y19.497
X27.762Y33.65
X38.557Y33.802
X38.58Y76.209
X38.596Y62.159
X38.6Y48.064
X38.608Y20.137
X40.078Y33.137
X40.083Y75.351
X40.093Y47.189
X40.094Y61.293
X40.123Y18.984
X43.185Y25.612
X43.186Y11.442
X43.245Y39.682
X43.29Y53.805
X43.322Y67.882
X43.694Y25.863
X43.697Y11.69
X43.753Y39.936
X43.797Y54.062
X43.827Y68.142
X44.47Y28.144
X44.486Y13.966
X44.515Y42.222
X44.545Y56.353
X44.563Y70.437
X44.713Y26.365
X44.719Y27.381
X44.719Y12.186
X44.731Y13.202
X44.769Y41.46
X44.769Y40.444
X44.804Y55.592
X44.81Y54.576
X44.826Y69.678
X44.837Y68.662
X45.974Y62.269
X45.974Y48.28
X45.974Y34.056
X46.228Y19.816
X62.738Y62.426
X62.738Y48.28
X62.738Y34.056
X62.738Y19.732
X77.724Y62.566
X77.978Y48.282
X77.978Y34.055
X77.978Y19.654
X116.586Y62.904
X116.586Y33.933
X116.586Y19.316
X116.84Y48.393
X156.21Y63.249
X156.21Y48.505
X156.21Y18.969
X156.464Y33.807
X179.324Y18.767
X179.578Y33.734
X179.832Y63.455
X179.832Y48.573
X206.502Y63.687
X207.518Y48.652
X207.518Y33.646
X207.518Y18.52
X242.316Y63.999
X242.316Y48.752
X242.316Y33.536
X242.316Y18.216
X256.54Y64.122
X256.794Y48.793
X256.794Y33.49
X257.048Y18.087
X291.931Y33.379
X292.1Y64.432
X292.1Y48.894
X292.1Y17.78
X306.324Y17.655
X306.578Y33.333
X306.832Y48.936
X307.086Y64.562
X346.71Y64.907
X381.762Y16.995
X382.016Y49.151
X382.016Y33.095
X382.27Y65.217
X417.83Y65.526
X417.83Y32.981
X417.83Y16.679
X418.084Y49.254
X447.569Y65.785
X447.802Y49.339
X448.056Y32.886
X448.056Y16.415
X461.772Y16.295
X462.026Y65.911
X462.026Y32.842
X462.28Y49.381
X493.522Y49.47
X493.522Y16.017
X493.648Y66.186
X493.776Y32.741
X543.306Y49.612
X543.306Y32.585
X543.306Y15.581
X543.76Y66.623
X558.292Y32.538
X558.546Y49.656
X558.616Y66.752
X559.054Y15.443
X581.152Y49.799
X581.406Y66.95
X581.406Y32.465
X581.66Y15.245
T2
X24.308Y6.397
X24.374Y20.141
X24.426Y34.418
X24.504Y48.429
X24.567Y62.397
X42.689Y27.647
X42.702Y13.479
X42.737Y41.714
X42.77Y55.834
X42.791Y69.908
X43.708Y28.149
X43.724Y13.975
X43.753Y42.222
X43.783Y56.348
X43.801Y70.428
X46.871Y26.242
X46.877Y12.05
X46.928Y40.334
X46.969Y54.479
X46.998Y68.577
X47.01Y28.129
X47.014Y28.891
X47.026Y13.937
X47.035Y14.699
X47.055Y42.984
X47.055Y42.222
X47.081Y57.13
X47.085Y56.368
X47.094Y71.228
X47.102Y70.466
X47.403Y26.603
X47.41Y12.408
X47.457Y40.698
X47.496Y54.846
X47.498Y10.883
X47.5Y25.078
X47.522Y68.947
X47.563Y39.174
X47.611Y53.323
X47.646Y67.424
X48.027Y28.377
X48.045Y14.179
X48.071Y42.476
X48.1Y56.628
X48.115Y70.732
X49.043Y28.371
X49.061Y14.167
X49.087Y42.476
X49.116Y56.634
X49.131Y70.744
X49.288Y26.846
X49.297Y12.64
X49.341Y40.952
X49.379Y55.111
X49.403Y69.223
X61.221Y26.013
X61.225Y11.739
X61.279Y40.19
X61.321Y54.42
X61.349Y68.601
X61.481Y27.027
X61.491Y12.752
X61.533Y41.206
X61.569Y55.438
X61.591Y69.62
X61.738Y27.534
X61.751Y13.257
X61.787Y41.714
X61.82Y55.947
X61.839Y70.131
X61.997Y28.294
X62.014Y14.016
X62.041Y42.476
X62.069Y56.711
X62.084Y70.895
T3
X43.18Y66.568
X44.45Y72.664
X44.45Y66.568
X45.212Y64.028
X48.768Y67.33
X50.546Y70.886
X50.546Y68.6
X52.07Y70.886
X52.07Y68.6
T4
X6.398Y4.846
X8.398Y4.846
X10.398Y4.846
X12.398Y4.846
T5
X2.54Y14.498
X2.54Y11.958
X2.54Y9.418
X6.091Y24.15
X6.096Y20.594
X6.096Y17.038
X6.121Y13.355
X6.147Y9.621
X7.366Y69.87
X7.366Y67.33
X7.366Y64.79
X7.366Y62.25
X7.366Y59.71
X7.366Y57.17
X7.366Y54.63
X8.631Y24.15
X8.636Y20.594
X8.636Y17.038
X8.661Y13.355
X8.687Y9.621
X12.949Y20.594
X12.954Y24.15
X12.954Y17.038
X12.954Y13.482
X12.954Y9.748
X13.208Y59.964
X15.489Y20.594
X15.494Y24.15
X15.494Y17.038
X15.494Y13.482
X15.494Y9.748
X17.526Y3.576
X20.066Y3.576
X22.462Y7.384
X22.484Y21.435
X22.492Y9.924
X22.499Y23.975
X22.514Y26.515
X22.521Y12.464
X22.529Y29.055
X22.544Y31.595
X22.551Y15.003
X22.569Y45.543
X22.569Y43.003
X22.569Y40.463
X22.569Y37.923
X22.569Y35.383
X22.58Y73.5
X22.58Y59.543
X22.581Y17.543
X22.595Y57.003
X22.606Y3.576
X22.609Y70.96
X22.61Y54.463
X22.625Y51.923
X22.639Y68.42
X22.641Y49.383
X22.669Y65.881
X22.698Y63.341
X26.122Y7.544
X26.143Y21.616
X26.151Y10.084
X26.158Y24.156
X26.173Y26.696
X26.181Y12.624
X26.188Y29.236
X26.203Y31.776
X26.211Y15.164
X26.227Y45.746
X26.227Y43.206
X26.227Y40.666
X26.227Y38.126
X26.227Y35.586
X26.235Y73.746
X26.237Y59.768
X26.24Y17.704
X26.252Y57.228
X26.264Y71.206
X26.267Y54.688
X26.282Y52.148
X26.294Y68.666
X26.297Y49.608
X26.324Y66.126
X26.353Y63.587
X33.291Y3.305
T6
X3.556Y77.744
X3.556Y75.204
X3.556Y72.664
X3.556Y70.124
X3.556Y67.584
X3.556Y65.044
X3.556Y62.504
X3.556Y59.964
X3.556Y57.424
X3.556Y54.884
X3.556Y52.344
X3.556Y49.804
X3.556Y47.264
X3.556Y44.724
X3.556Y42.184
X3.556Y39.644
X3.556Y37.104
X3.556Y34.564
X3.556Y32.024
X3.556Y29.484
X18.796Y77.744
X18.796Y75.204
X18.796Y72.664
X18.796Y70.124
X18.796Y67.584
X18.796Y65.044
X18.796Y62.504
X18.796Y59.964
X18.796Y57.424
X18.796Y54.884
X18.796Y52.344
X18.796Y49.804
X18.796Y47.264
X18.796Y44.724
X18.796Y42.184
X18.796Y39.644
X18.796Y37.104
X18.796Y34.564
X18.796Y32.024
X18.796Y29.484
M30
